0
SECTION
2
HEADER
9
$INSUNITS
70
4
9
$ACADVER
1
AC1014
9
$HANDSEED
5
FFFF
0
ENDSEC
0
SECTION
2
TABLES
0
TABLE
2
VPORT
5
8
100
AcDbSymbolTable
0
ENDTAB
0
TABLE
2
LTYPE
5
5
100
AcDbSymbolTable
0
LTYPE
5
14
100
AcDbSymbolTableRecord
100
AcDbLinetypeTableRecord
2
BYBLOCK
70
0
0
LTYPE
5
15
100
AcDbSymbolTableRecord
100
AcDbLinetypeTableRecord
2
BYLAYER
70
0
0
ENDTAB
0
TABLE
2
LAYER
5
2
100
AcDbSymbolTable
70
2
0
LAYER
5
50
100
AcDbSymbolTableRecord
100
AcDbLayerTableRecord
2
0
70
0
6
CONTINUOUS
0
ENDTAB
0
TABLE
2
STYLE
5
3
100
AcDbSymbolTable
70
1
0
STYLE
5
11
100
AcDbSymbolTableRecord
100
AcDbTextStyleTableRecord
2
STANDARD
70
0
0
ENDTAB
0
TABLE
2
VIEW
5
6
100
AcDbSymbolTable
70
0
0
ENDTAB
0
TABLE
2
UCS
5
7
100
AcDbSymbolTable
70
0
0
ENDTAB
0
TABLE
2
APPID
5
9
100
AcDbSymbolTable
70
2
0
APPID
5
12
100
AcDbSymbolTableRecord
100
AcDbRegAppTableRecord
2
ACAD
70
0
0
ENDTAB
0
TABLE
2
DIMSTYLE
5
A
100
AcDbSymbolTable
70
1
0
ENDTAB
0
TABLE
2
BLOCK_RECORD
5
1
100
AcDbSymbolTable
70
1
0
BLOCK_RECORD
5
1F
100
AcDbSymbolTableRecord
100
AcDbBlockTableRecord
2
*MODEL_SPACE
0
BLOCK_RECORD
5
1B
100
AcDbSymbolTableRecord
100
AcDbBlockTableRecord
2
*PAPER_SPACE
0
ENDTAB
0
ENDSEC
0
SECTION
2
BLOCKS
0
BLOCK
5
20
100
AcDbEntity
100
AcDbBlockBegin
2
*MODEL_SPACE
0
ENDBLK
5
21
100
AcDbEntity
100
AcDbBlockEnd
0
BLOCK
5
1C
100
AcDbEntity
100
AcDbBlockBegin
2
*PAPER_SPACE
0
ENDBLK
5
1D
100
AcDbEntity
100
AcDbBlockEnd
0
ENDSEC
0
SECTION
2
ENTITIES
0
CIRCLE
5
100
100
AcDbEntity
8
0
100
AcDbCircle
10
-32.381053148206625
20
91.098752860575559
30
0
40
1.5499999999999934
210
1.3210915155903532e-32
220
-2.2009720256975936e-31
230
1
0
CIRCLE
5
101
100
AcDbEntity
8
0
100
AcDbCircle
10
-62.703307656245315
20
73.59219105792387
30
0
40
1.5499999999999934
210
1.3210915155903532e-32
220
-2.2009720256975936e-31
230
1
0
CIRCLE
5
102
100
AcDbEntity
8
0
100
AcDbCircle
10
-48.019878987741691
20
83.172870180066738
30
0
40
1.5500000000000114
210
0
220
-0
230
1
0
CIRCLE
5
103
100
AcDbEntity
8
0
100
AcDbCircle
10
95.084360804442014
20
-17.506561802646804
30
0
40
1.5499999999999934
210
2.4651903288156624e-32
220
-3.9443045261050599e-31
230
1
0
CIRCLE
5
104
100
AcDbEntity
8
0
100
AcDbCircle
10
48.019878987741663
20
-83.172870180066752
30
0
40
1.5500000000000114
210
0
220
-0
230
1
0
CIRCLE
5
105
100
AcDbEntity
8
0
100
AcDbCircle
10
-32.381053148197438
20
-91.098752860581698
30
0
40
1.5499999999999938
210
7.2185782840819757e-32
220
-2.6940100914607264e-31
230
1
0
CIRCLE
5
106
100
AcDbEntity
8
0
100
AcDbCircle
10
62.703307656245286
20
-73.592191057923898
30
0
40
1.5499999999999932
210
-8.5396697996723084e-32
220
-4.9303806576313271e-32
230
1
0
CIRCLE
5
107
100
AcDbEntity
8
0
100
AcDbCircle
10
-95.084360804442014
20
17.506561802646793
30
0
40
1.5499999999999934
210
2.4651903288156674e-32
220
-3.9443045261050599e-31
230
1
0
CIRCLE
5
108
100
AcDbEntity
8
0
100
AcDbCircle
10
-96.039757975473847
20
-5.4753120904669882e-12
30
0
40
1.5500000000000114
210
-0
220
0
230
1
0
CIRCLE
5
109
100
AcDbEntity
8
0
100
AcDbCircle
10
32.381053148206597
20
-91.098752860575559
30
0
40
1.5499999999999932
210
-8.5396697996723084e-32
220
-4.9303806576313271e-32
230
1
0
ARC
5
110
100
AcDbEntity
8
0
100
AcDbCircle
10
-91.212726399404701
20
21.378196207686603
30
0
40
5
210
0
220
0
230
1
100
AcDbArc
50
90.00000000000928
51
130.87218944616799
0
ARC
5
111
100
AcDbEntity
8
0
100
AcDbCircle
10
-130.47515776628742
20
66.748467125555209
30
-1.7516230804060213e-45
40
54.999999999508759
210
-2.00759826547312e-32
220
-2.7818095889853997e-31
230
1
100
AcDbArc
50
270.42777018825745
51
310.87218944616797
0
LINE
5
112
100
AcDbEntity
8
0
100
AcDbLine
10
-130.06453167862628
20
11.749999999988017
30
-1.5291282600726644e-29
11
-130.06453167963915
21
11.378196207678604
31
-1.2325951644078309e-31
0
LINE
5
113
100
AcDbEntity
8
0
100
AcDbLine
10
-130.06453167963915
20
11.378196207678604
30
-1.2325951644078309e-31
11
-130.06453008615264
21
9.6476903336913793
31
0
0
ARC
5
114
100
AcDbEntity
8
0
100
AcDbCircle
10
-136.29527343912886
20
-7.510658761589184e-12
30
1.1899678765848937e-42
40
11.484776510912356
210
1.6566899936418054e-31
220
-1.0699358922993515e-31
230
1
100
AcDbArc
50
53.585385493322597
51
57.144515477533545
0
LINE
5
115
100
AcDbEntity
8
0
100
AcDbLine
10
-129.47763248566099
20
9.2422866940526642
30
-1.4060632869452085e-31
11
-129.10636024627982
21
9.242286694052666
31
0
0
ARC
5
116
100
AcDbEntity
8
0
100
AcDbCircle
10
-127.99527343912763
20
10.249999999994531
30
0
40
1.4999999999999769
210
1.3249093845476161e-31
220
-1.4608215741153576e-31
230
1
100
AcDbArc
50
222.20682827770173
51
317.79317172229827
0
LINE
5
117
100
AcDbEntity
8
0
100
AcDbLine
10
-126.88418663197544
20
9.2422866940526642
30
-2.9441786756859692e-31
11
-125.34527343912762
21
9.2422866940526589
31
-3.0814879110195774e-32
0
LINE
5
118
100
AcDbEntity
8
0
100
AcDbLine
10
-125.34527343912762
20
9.2422866940526589
30
-3.0814879110195774e-32
11
-125.34527343912764
21
10.699999999994571
31
0
0
LINE
5
119
100
AcDbEntity
8
0
100
AcDbLine
10
-125.34527343912764
20
10.699999999994571
30
0
11
-118.97027343912765
21
10.699999999994654
31
0
0
LINE
5
120
100
AcDbEntity
8
0
100
AcDbLine
10
-118.97027343912765
20
10.699999999994654
30
0
11
-118.97027343913877
21
9.2422866940526482
31
0
0
LINE
5
121
100
AcDbEntity
8
0
100
AcDbLine
10
-118.97027343913877
20
9.2422866940526482
30
0
11
-106.78914966735361
21
9.242286694052158
31
0
0
ELLIPSE
5
122
100
AcDbEntity
8
0
100
AcDbEllipse
10
-106.79527343912741
20
9.039201371675011
30
0
11
0.14575200912862052
21
0.14575200912862488
31
0.0
40
0.97028752524782536
41
5.5128662742791708
42
7.0535043400849062
0
LINE
5
123
100
AcDbEntity
8
0
100
AcDbLine
10
-106.59218811675026
20
9.0453251434498156
30
-2.746672624910638e-32
11
-106.59218811674906
21
-9.0453251434592943
31
0
0
ELLIPSE
5
124
100
AcDbEntity
8
0
100
AcDbEllipse
10
-106.79527343912622
20
-9.0392013716824309
30
0
11
0.14575200912862432
21
-0.14575200912862107
31
0.0
40
0.97028752524782569
41
5.5128662742743071
42
7.0535043400698711
0
LINE
5
125
100
AcDbEntity
8
0
100
AcDbLine
10
-106.78914966735236
20
-9.2422866940595778
30
0
11
-118.97027343912561
21
-9.2422866940642745
31
0
0
LINE
5
126
100
AcDbEntity
8
0
100
AcDbLine
10
-118.97027343912561
20
-9.2422866940642745
30
0
11
-118.97027343912734
21
-10.700000000005414
31
0
0
LINE
5
127
100
AcDbEntity
8
0
100
AcDbLine
10
-118.97027343912734
20
-10.700000000005414
30
0
11
-125.34527343912735
21
-10.700000000005494
31
-2.4651903288156619e-31
0
LINE
5
128
100
AcDbEntity
8
0
100
AcDbLine
10
-125.34527343912735
20
-10.700000000005494
30
-2.4651903288156619e-31
11
-125.34527343912737
21
-9.2422866940653865
31
0
0
LINE
5
129
100
AcDbEntity
8
0
100
AcDbLine
10
-125.34527343912737
20
-9.2422866940653865
30
0
11
-126.88418663196927
21
-9.2422866940656565
31
0
0
ARC
5
130
100
AcDbEntity
8
0
100
AcDbCircle
10
-127.99527343912737
20
-10.250000000005526
30
0
40
1.500000000003018
210
0
220
-0
230
1
100
AcDbArc
50
42.206828277493585
51
137.7931717225257
0
LINE
5
131
100
AcDbEntity
8
0
100
AcDbLine
10
-129.10636024628582
20
-9.2422866940660278
30
2.8797076264996158e-32
11
-129.47763248566102
21
-9.2422866940638961
31
0
0
ARC
5
132
100
AcDbEntity
8
0
100
AcDbCircle
10
-136.29527343912886
20
-7.510658761589184e-12
30
1.1899678765848937e-42
40
11.484776648767044
210
-4.1635730393680329e-32
220
-2.757791814621137e-31
230
1
100
AcDbArc
50
302.8554745869107
51
306.41461450668851
0
LINE
5
133
100
AcDbEntity
8
0
100
AcDbLine
10
-130.06453168435181
20
-9.647691529971695
30
-2.4012109892767564e-30
11
-130.06453167862077
21
-11.749999999513665
31
0
0
ARC
5
134
100
AcDbEntity
8
0
100
AcDbCircle
10
-130.47515776627679
20
-66.748467125572077
30
-4.2038953929744512e-44
40
54.999999999999936
210
2.1706426526920511e-32
220
-3.9460350901846843e-31
230
1
100
AcDbArc
50
49.127810553840433
51
89.572229811751697
0
ARC
5
135
100
AcDbEntity
8
0
100
AcDbCircle
10
-91.212726399402243
20
-21.378196207697812
30
0
40
4.9999999999987486
210
2.0455861030930658e-30
220
2.3638066327576295e-30
230
1
100
AcDbArc
50
229.12781055385312
51
269.99999999999949
0
LINE
5
136
100
AcDbEntity
8
0
100
AcDbLine
10
-91.212726399402285
20
-26.378196207697819
30
0
11
-45.688376043746771
21
-26.378196207697723
31
0
0
LINE
5
137
100
AcDbEntity
8
0
100
AcDbLine
10
-45.688376043746771
20
-26.378196207697723
30
0
11
-68.450551221569668
21
-65.803440106481389
31
0
0
ARC
5
138
100
AcDbEntity
8
0
100
AcDbCircle
10
-64.120424202647087
20
-68.303440106480693
30
0
40
4.9999999999999982
210
0
220
0
230
1
100
AcDbArc
50
150.00000000000912
51
190.87218944616851
0
ARC
5
139
100
AcDbEntity
8
0
100
AcDbCircle
10
-123.04344707754436
20
-79.620567625610292
30
-3.0653403907105373e-45
40
54.999999999508724
210
-6.140790876947344e-32
220
1.8902547596268803e-31
230
1
100
AcDbArc
50
-29.57222981174257
51
10.872189446168504
0
LINE
5
140
100
AcDbEntity
8
0
100
AcDbLine
10
-75.208064333769329
20
-106.76418856502275
30
8.0683066869058011e-30
11
-74.886072804912416
21
-106.95009046205463
31
0
0
LINE
5
141
100
AcDbEntity
8
0
100
AcDbLine
10
-74.886072804912416
20
-106.95009046205463
30
0
11
-73.387409959898037
21
-107.81534201904844
31
0
0
ARC
5
142
100
AcDbEntity
8
0
100
AcDbCircle
10
-68.147636719550192
20
-118.03516921405122
30
1.4834495867958595e-41
40
11.484776510928894
210
-9.2206701909344211e-32
220
3.9597571572218404e-31
230
1
100
AcDbArc
50
113.58538549332553
51
117.14451547753137
0
LINE
5
143
100
AcDbEntity
8
0
100
AcDbLine
10
-72.742871308938419
20
-107.50977560742187
30
-4.5915116926151519e-30
11
-72.557235189247834
21
-107.18824441639788
31
0
0
ARC
5
144
100
AcDbEntity
8
0
100
AcDbCircle
10
-72.874397108349001
20
-105.72215836262339
30
0
40
1.4999999999999878
210
4.818908214635204e-32
220
1.0424859941823907e-32
230
1
100
AcDbArc
50
-77.793171722298155
51
17.793171722297725
0
LINE
5
145
100
AcDbEntity
8
0
100
AcDbLine
10
-71.446148382095629
20
-105.26378561479079
30
-1.0240154315484444e-31
11
-70.676691785671721
21
-103.93104769556557
31
0
0
LINE
5
146
100
AcDbEntity
8
0
100
AcDbLine
10
-70.676691785671721
20
-103.93104769556557
30
0
11
-71.939108540052018
21
-103.20219104259463
31
0
0
LINE
5
147
100
AcDbEntity
8
0
100
AcDbLine
10
-71.939108540052018
20
-103.20219104259463
30
0
11
-68.751608540052089
21
-97.68127909346876
31
0
0
LINE
5
148
100
AcDbEntity
8
0
100
AcDbLine
10
-68.751608540052089
20
-97.68127909346876
30
0
11
-67.489191785677292
21
-98.410135746449441
31
0
0
LINE
5
149
100
AcDbEntity
8
0
100
AcDbLine
10
-67.489191785677292
20
-98.410135746449441
30
0
11
-61.398629899784268
21
-87.860973113441204
31
0
0
ELLIPSE
5
150
100
AcDbEntity
8
0
100
AcDbEllipse
10
-61.225814737356814
20
-87.967819116552874
30
0
11
-0.053348937993700253
21
0.19910094712231932
31
0.0
40
0.97028752524782558
41
5.5128662742791299
42
7.0535043400849462
0
LINE
5
151
100
AcDbEntity
8
0
100
AcDbLine
10
-61.129575418092195
20
-87.788880182351093
30
-2.9174673434088837e-32
11
-45.462612698648066
21
-96.834205325804632
31
0
0
ELLIPSE
5
152
100
AcDbEntity
8
0
100
AcDbEllipse
10
-45.569458701762372
20
-97.007020488230552
30
0
11
0.19910094712231954
21
0.053348937993699469
31
0.0
40
0.97028752524782558
41
5.512866274274427
42
7.0535043400698711
0
LINE
5
153
100
AcDbEntity
8
0
100
AcDbLine
10
-45.390519767561088
20
-97.103259807496002
30
-4.2054062966217059e-32
11
-51.481081653443653
21
-107.65242244049647
31
0
0
LINE
5
154
100
AcDbEntity
8
0
100
AcDbLine
10
-51.481081653443653
20
-107.65242244049647
30
0
11
-50.218664899064905
21
-108.38127909346858
31
0
0
LINE
5
155
100
AcDbEntity
8
0
100
AcDbLine
10
-50.218664899064905
20
-108.38127909346858
30
0
11
-53.406164899064841
21
-113.90219104259442
31
0
0
LINE
5
156
100
AcDbEntity
8
0
100
AcDbLine
10
-53.406164899064841
20
-113.90219104259442
30
0
11
-54.668581653443582
21
-113.17333438962437
31
0
0
LINE
5
157
100
AcDbEntity
8
0
100
AcDbLine
10
-54.668581653443582
20
-113.17333438962437
30
0
11
-55.438038249864299
21
-114.50607230884461
31
0
0
ARC
5
158
100
AcDbEntity
8
0
100
AcDbCircle
10
-55.120876330767828
20
-115.97215836262319
30
0
40
1.5000000000029896
210
-5.3500628534475116e-48
220
-1.1573919535711077e-48
230
1
100
AcDbArc
50
102.20682827749347
51
197.79317172252672
0
LINE
5
159
100
AcDbEntity
8
0
100
AcDbLine
10
-56.549125057022216
20
-116.43053111046241
30
-2.8797076265001698e-32
11
-56.734761176711686
21
-116.75206230148019
31
0
0
ARC
5
160
100
AcDbEntity
8
0
100
AcDbCircle
10
-68.147636719550192
20
-118.03516921405122
30
1.4834495867958595e-41
40
11.484776648760647
210
-3.1817936365617692e-32
220
3.9333818776707506e-31
230
1
100
AcDbArc
50
2.8554745869866607
51
6.4146145067664104
0
LINE
5
161
100
AcDbEntity
8
0
100
AcDbLine
10
-56.677119889343871
20
-117.46303433496107
30
1.3992567809942311e-31
11
-54.85646734526383
21
-118.5141885647688
31
0
0
ARC
5
162
100
AcDbEntity
8
0
100
AcDbCircle
10
-7.4317106887218465
20
-146.36903475116497
30
-1.5764607723654192e-44
40
55.000000000000135
210
-9.9879996260874742e-32
220
-1.7005243848166308e-31
230
1
100
AcDbArc
50
109.12781055384045
51
149.57222981175153
0
ARC
5
163
100
AcDbEntity
8
0
100
AcDbCircle
10
-27.092302196746616
20
-89.68163631417076
30
0
40
4.9999999999994555
210
-5.5429957694010716e-31
220
1.2972826464489131e-30
230
1
100
AcDbArc
50
289.12781055385693
51
329.99999999999983
0
LINE
5
164
100
AcDbEntity
8
0
100
AcDbLine
10
-22.762175177824425
20
-92.181636314170774
30
3.2263122030459666e-31
11
3.1485924978369439e-12
21
-52.756392415389939
31
0
0
LINE
5
165
100
AcDbEntity
8
0
100
AcDbLine
10
3.1485924978369439e-12
20
-52.756392415389939
30
0
11
22.762175177835765
21
-92.181636314167974
31
0
0
ARC
5
166
100
AcDbEntity
8
0
100
AcDbCircle
10
27.092302196757565
20
-89.681636314167292
30
0
40
4.9999999999999982
210
0
220
0
230
1
100
AcDbArc
50
210.00000000000898
51
250.87218944617717
0
ARC
5
167
100
AcDbEntity
8
0
100
AcDbCircle
10
7.4317106887437934
20
-146.36903475116529
30
5.6051938572992683e-44
40
54.999999999508674
210
1.5778628432087611e-31
220
1.5401556849390911e-31
230
1
100
AcDbArc
50
30.427770188257384
51
70.872189446168562
0
LINE
5
168
100
AcDbEntity
8
0
100
AcDbLine
10
54.856467344857691
20
-118.51418856501063
30
-1.1773056108260899e-29
11
55.178458874727482
21
-118.32828666973307
31
0
0
LINE
5
169
100
AcDbEntity
8
0
100
AcDbLine
10
55.178458874727482
20
-118.32828666973307
30
0
11
56.67712012625536
21
-117.46303235273969
31
0
0
ARC
5
170
100
AcDbEntity
8
0
100
AcDbCircle
10
68.147636719582479
20
-118.03516921402948
30
-2.8920802358588136e-42
40
11.484776510922597
210
1.9649333266690371e-32
220
3.9394071336775525e-31
230
1
100
AcDbArc
50
173.58538549332417
51
177.14451547753214
0
LINE
5
171
100
AcDbEntity
8
0
100
AcDbLine
10
56.73476117672331
20
-116.7520623014744
30
-2.8121265738904188e-31
11
56.54912505703274
21
-116.43053111045037
31
0
0
ARC
5
172
100
AcDbEntity
8
0
100
AcDbCircle
10
55.120876330779382
20
-115.97215836261779
30
0
40
1.4999999999999889
210
-0
220
0
230
1
100
AcDbArc
50
-17.793171722297359
51
77.79317172229814
0
LINE
5
173
100
AcDbEntity
8
0
100
AcDbLine
10
55.438038249880549
20
-114.5060723088433
30
-1.4398538131347222e-32
11
54.668581653456656
21
-113.17333438961808
31
0
0
LINE
5
174
100
AcDbEntity
8
0
100
AcDbLine
10
54.668581653456656
20
-113.17333438961808
30
0
11
53.406164899076373
21
-113.90219104258904
31
0
0
LINE
5
175
100
AcDbEntity
8
0
100
AcDbLine
10
53.406164899076373
20
-113.90219104258904
30
0
11
50.218664899076295
21
-108.38127909346328
31
0
0
LINE
5
176
100
AcDbEntity
8
0
100
AcDbLine
10
50.218664899076295
20
-108.38127909346328
30
0
11
51.481081653462226
21
-107.65242244050192
31
0
0
LINE
5
177
100
AcDbEntity
8
0
100
AcDbLine
10
51.481081653462226
20
-107.65242244050192
30
0
11
45.390519767570076
21
-97.103259807493188
31
0
0
ELLIPSE
5
178
100
AcDbEntity
8
0
100
AcDbEllipse
10
45.569458701771346
20
-97.007020488227738
30
0
11
-0.19910094712232085
21
0.053348937993694445
31
0.0
40
0.97028752524782536
41
5.5128662742789691
42
7.0535043400848245
0
LINE
5
179
100
AcDbEntity
8
0
100
AcDbLine
10
45.46261269865883
20
-96.834205325800752
30
-4.2054062966151713e-32
11
61.129575418101744
21
-87.788880182345181
31
0
0
ELLIPSE
5
180
100
AcDbEntity
8
0
100
AcDbEllipse
10
61.225814737364587
20
-87.967819116547972
30
0
11
0.053348937993695285
21
0.19910094712232054
31
0.0
40
0.97028752524782591
41
5.512866274274387
42
7.053504340069952
0
LINE
5
181
100
AcDbEntity
8
0
100
AcDbLine
10
61.398629899792013
20
-87.860973113436259
30
1.3733363124619073e-32
11
67.489191785682706
21
-98.410135746432076
31
0
0
LINE
5
182
100
AcDbEntity
8
0
100
AcDbLine
10
67.489191785682706
20
-98.410135746432076
30
0
11
68.751608540063216
21
-97.681279093463019
31
0
0
LINE
5
183
100
AcDbEntity
8
0
100
AcDbLine
10
68.751608540063216
20
-97.681279093463019
30
0
11
71.939108540063273
21
-103.20219104258877
31
0
0
LINE
5
184
100
AcDbEntity
8
0
100
AcDbLine
10
71.939108540063273
20
-103.20219104258877
30
0
11
70.676691785684554
21
-103.93104769555885
31
0
0
LINE
5
185
100
AcDbEntity
8
0
100
AcDbLine
10
70.676691785684554
20
-103.93104769555885
30
0
11
71.446148382105747
21
-105.26378561477883
31
0
0
ARC
5
186
100
AcDbEntity
8
0
100
AcDbCircle
10
72.874397108360299
20
-105.72215836261755
30
0
40
1.5000000000029947
210
0
220
0
230
1
100
AcDbArc
50
162.20682827749329
51
257.79317172252627
0
LINE
5
187
100
AcDbEntity
8
0
100
AcDbLine
10
72.557235189264333
20
-107.18824441639624
30
0
11
72.742871308950072
21
-107.50977560741616
31
0
0
ARC
5
188
100
AcDbEntity
8
0
100
AcDbCircle
10
68.147636719582479
20
-118.03516921402948
30
-2.8920802358588136e-42
40
11.484776648763134
210
-9.0370408170838142e-32
220
3.9454412917925951e-32
230
1
100
AcDbArc
50
62.855474586957854
51
66.414614506736825
0
LINE
5
189
100
AcDbEntity
8
0
100
AcDbLine
10
73.387411795008688
20
-107.8153428049892
30
7.0303361194959628e-32
11
75.208064333357697
21
-106.764188565255
31
0
0
ARC
5
190
100
AcDbEntity
8
0
100
AcDbCircle
10
123.04344707755597
20
-79.620567625592557
30
-2.1457382734973761e-44
40
55.00000000000022
210
-1.1567316903850831e-32
220
2.201897001177304e-31
230
1
100
AcDbArc
50
169.1278105538405
51
209.57222981175147
0
ARC
5
191
100
AcDbEntity
8
0
100
AcDbCircle
10
64.120424202655556
20
-68.303440106472976
30
0
40
5.000000000000191
210
5.7136441016949961e-31
220
-1.0973985335912959e-31
230
1
100
AcDbArc
50
-10.87218944614782
51
29.999999999999826
0
LINE
5
192
100
AcDbEntity
8
0
100
AcDbLine
10
68.450551221577754
20
-65.803440106472991
30
0
11
45.688376043749997
21
-26.378196207692199
31
0
0
LINE
5
193
100
AcDbEntity
8
0
100
AcDbLine
10
45.688376043749997
20
-26.378196207692199
30
0
11
91.21272639940554
21
-26.37819620768655
31
0
0
ARC
5
194
100
AcDbEntity
8
0
100
AcDbCircle
10
91.21272639940473
20
-21.37819620768655
30
0
40
5
210
-0
220
0
230
1
100
AcDbArc
50
270.00000000000927
51
310.87218944617729
0
ARC
5
195
100
AcDbEntity
8
0
100
AcDbCircle
10
130.47515776628896
20
-66.748467125554598
30
1.4012984643248171e-44
40
54.999999999508574
210
1.290524881219063e-31
220
-1.4912847077663391e-31
230
1
100
AcDbArc
50
90.427770188257369
51
130.87218944616865
0
LINE
5
196
100
AcDbEntity
8
0
100
AcDbLine
10
130.0645316786279
20
-11.74999999998759
30
8.2548296157952179e-30
11
130.06453167964077
21
-11.378196207678178
31
2.4651903288156619e-31
0
LINE
5
197
100
AcDbEntity
8
0
100
AcDbLine
10
130.06453167964077
20
-11.378196207678178
30
2.4651903288156619e-31
11
130.06453008615426
21
-9.6476903336909601
31
0
0
ARC
5
198
100
AcDbEntity
8
0
100
AcDbCircle
10
136.2952734391302
20
7.5417450062786884e-12
30
0
40
11.484776510911875
210
0
220
0
230
1
100
AcDbArc
50
233.58538549332246
51
237.14451547753364
0
LINE
5
199
100
AcDbEntity
8
0
100
AcDbLine
10
129.47763248566258
20
-9.242286694052245
30
0
11
129.10636024628144
21
-9.2422866940522468
31
0
0
ARC
5
200
100
AcDbEntity
8
0
100
AcDbCircle
10
127.99527343912926
20
-10.24999999999411
30
0
40
1.4999999999999769
210
1.3249093845476161e-31
220
-1.4608215741153576e-31
230
1
100
AcDbArc
50
42.20682827770203
51
137.7931717222983
0
LINE
5
201
100
AcDbEntity
8
0
100
AcDbLine
10
126.88418663197707
20
-9.242286694052245
30
2.9441786756859692e-31
11
125.34527343912924
21
-9.2422866940522397
31
1.2325951644078309e-31
0
LINE
5
202
100
AcDbEntity
8
0
100
AcDbLine
10
125.34527343912924
20
-9.2422866940522397
30
1.2325951644078309e-31
11
125.34527343912926
21
-10.699999999994148
31
0
0
LINE
5
203
100
AcDbEntity
8
0
100
AcDbLine
10
125.34527343912926
20
-10.699999999994148
30
0
11
118.97027343912926
21
-10.69999999999423
31
0
0
LINE
5
204
100
AcDbEntity
8
0
100
AcDbLine
10
118.97027343912926
20
-10.69999999999423
30
0
11
118.9702734391404
21
-9.2422866940522308
31
0
0
LINE
5
205
100
AcDbEntity
8
0
100
AcDbLine
10
118.9702734391404
20
-9.2422866940522308
30
0
11
106.78914966735525
21
-9.2422866940517423
31
0
0
ELLIPSE
5
206
100
AcDbEntity
8
0
100
AcDbEllipse
10
106.79527343912906
20
-9.0392013716745936
30
0
11
-0.14575200912862046
21
-0.1457520091286249
31
0.0
40
0.97028752524782524
41
5.5128662742790109
42
7.0535043400850261
0
LINE
5
207
100
AcDbEntity
8
0
100
AcDbLine
10
106.5921881167519
20
-9.0453251434493804
30
2.7466726249108745e-32
11
106.59218811675068
21
9.0453251434597099
31
0
0
ELLIPSE
5
208
100
AcDbEntity
8
0
100
AcDbEllipse
10
106.79527343912783
20
9.0392013716828483
30
0
11
-0.14575200912862432
21
0.14575200912862105
31
0.0
40
0.97028752524782502
41
5.5128662742743479
42
7.0535043400699111
0
LINE
5
209
100
AcDbEntity
8
0
100
AcDbLine
10
106.78914966735398
20
9.242286694059997
30
1.7079471847145049e-33
11
118.97027343912723
21
9.2422866940646919
31
0
0
LINE
5
210
100
AcDbEntity
8
0
100
AcDbLine
10
118.97027343912723
20
9.2422866940646919
30
0
11
118.97027343912897
21
10.700000000005836
31
0
0
LINE
5
211
100
AcDbEntity
8
0
100
AcDbLine
10
118.97027343912897
20
10.700000000005836
30
0
11
125.34527343912899
21
10.700000000005918
31
2.4651903288156619e-31
0
LINE
5
212
100
AcDbEntity
8
0
100
AcDbLine
10
125.34527343912899
20
10.700000000005918
30
2.4651903288156619e-31
11
125.34527343912899
21
9.2422866940658075
31
0
0
LINE
5
213
100
AcDbEntity
8
0
100
AcDbLine
10
125.34527343912899
20
9.2422866940658075
30
0
11
126.88418663197089
21
9.2422866940660757
31
0
0
ARC
5
214
100
AcDbEntity
8
0
100
AcDbCircle
10
127.99527343912898
20
10.250000000005945
30
0
40
1.5000000000030056
210
0
220
0
230
1
100
AcDbArc
50
222.20682827749394
51
317.79317172252587
0
LINE
5
215
100
AcDbEntity
8
0
100
AcDbLine
10
129.10636024628741
20
9.2422866940664665
30
2.8797076264996049e-32
11
129.47763248566264
21
9.2422866940643171
31
0
0
ARC
5
216
100
AcDbEntity
8
0
100
AcDbCircle
10
136.2952734391302
20
7.5417450062786884e-12
30
0
40
11.484776648767214
210
0
220
0
230
1
100
AcDbArc
50
122.85547458690843
51
126.41461450668623
0
LINE
5
217
100
AcDbEntity
8
0
100
AcDbLine
10
130.06453168435343
20
9.6476915299721142
30
0
11
130.06453167862239
21
11.749999999514083
31
0
0
ARC
5
218
100
AcDbEntity
8
0
100
AcDbCircle
10
130.47515776627841
20
66.748467125572489
30
-1.4012984643248171e-43
40
54.999999999999901
210
2.1706426526920117e-32
220
-3.9460350901846747e-31
230
1
100
AcDbArc
50
229.12781055384039
51
269.57222981175164
0
ARC
5
219
100
AcDbEntity
8
0
100
AcDbCircle
10
91.212726399402271
20
21.378196207697865
30
0
40
5.0000000000000924
210
2.0455861030929734e-30
220
2.363806632756636e-30
230
1
100
AcDbArc
50
49.12781055384265
51
89.999999999999844
0
LINE
5
220
100
AcDbEntity
8
0
100
AcDbLine
10
91.212726399402285
20
26.378196207697865
30
0
11
45.6883760437468
21
26.378196207697751
31
0
0
LINE
5
221
100
AcDbEntity
8
0
100
AcDbLine
10
45.6883760437468
20
26.378196207697751
30
0
11
68.450551221569697
21
65.803440106481446
31
0
0
ARC
5
222
100
AcDbEntity
8
0
100
AcDbCircle
10
64.120424202647101
20
68.30344010648075
30
0
40
5.0000000000000071
210
-0
220
0
230
1
100
AcDbArc
50
-29.999999999990806
51
10.872189446169514
0
ARC
5
223
100
AcDbEntity
8
0
100
AcDbCircle
10
123.04344707754565
20
79.620567625610889
30
0
40
54.999999999508383
210
2.4209411022630448e-32
220
4.6498122183554424e-33
230
1
100
AcDbArc
50
150.42777018825731
51
190.87218944616873
0
LINE
5
224
100
AcDbEntity
8
0
100
AcDbLine
10
75.208064333770963
20
106.76418856502325
30
1.031853701974397e-30
11
74.886072804914065
21
106.95009046205512
31
0
0
LINE
5
225
100
AcDbEntity
8
0
100
AcDbLine
10
74.886072804914065
20
106.95009046205512
30
0
11
73.387409959899685
21
107.81534201904893
31
0
0
ARC
5
226
100
AcDbEntity
8
0
100
AcDbCircle
10
68.14763671955923
20
118.03516921403612
30
0
40
11.484776510911626
210
0
220
0
230
1
100
AcDbArc
50
293.58538549332286
51
297.14451547753401
0
LINE
5
227
100
AcDbEntity
8
0
100
AcDbLine
10
72.742871308940067
20
107.50977560742237
30
0
11
72.557235189249482
21
107.18824441639838
31
0
0
ARC
5
228
100
AcDbEntity
8
0
100
AcDbCircle
10
72.874397108350649
20
105.72215836262389
30
0
40
1.4999999999999898
210
0
220
0
230
1
100
AcDbArc
50
102.20682827770186
51
197.79317172229824
0
LINE
5
229
100
AcDbEntity
8
0
100
AcDbLine
10
71.446148382097277
20
105.26378561479127
30
0
11
70.67669178567337
21
103.93104769556604
31
0
0
LINE
5
230
100
AcDbEntity
8
0
100
AcDbLine
10
70.67669178567337
20
103.93104769556604
30
0
11
71.939108540053653
21
103.20219104259509
31
-2.4651903288156619e-31
0
LINE
5
231
100
AcDbEntity
8
0
100
AcDbLine
10
71.939108540053653
20
103.20219104259509
30
-2.4651903288156619e-31
11
68.751608540053738
21
97.681279093469271
31
0
0
LINE
5
232
100
AcDbEntity
8
0
100
AcDbLine
10
68.751608540053738
20
97.681279093469271
30
0
11
67.489191785678926
21
98.41013574644991
31
0
0
LINE
5
233
100
AcDbEntity
8
0
100
AcDbLine
10
67.489191785678926
20
98.41013574644991
30
0
11
61.398629899785924
21
87.860973113441673
31
0
0
ELLIPSE
5
234
100
AcDbEntity
8
0
100
AcDbEllipse
10
61.225814737358462
20
87.967819116553358
30
0
11
0.053348937993700357
21
-0.19910094712231927
31
0.0
40
0.97028752524782458
41
5.5128662742791308
42
7.0535043400850261
0
LINE
5
235
100
AcDbEntity
8
0
100
AcDbLine
10
61.12957541809385
20
87.788880182351576
30
3.604135499636527e-32
11
45.462612698649714
21
96.834205325805101
31
0
0
ELLIPSE
5
236
100
AcDbEntity
8
0
100
AcDbEllipse
10
45.569458701764027
20
97.007020488231021
30
0
11
-0.1991009471223194
21
-0.053348937993699531
31
0.0
40
0.97028752524782602
41
5.512866274274308
42
7.0535043400699102
0
LINE
5
237
100
AcDbEntity
8
0
100
AcDbLine
10
45.390519767562758
20
97.103259807496471
30
1.4587336716975947e-32
11
51.481081653445301
21
107.65242244049696
31
0
0
LINE
5
238
100
AcDbEntity
8
0
100
AcDbLine
10
51.481081653445301
20
107.65242244049696
30
0
11
50.21866489906656
21
108.38127909346906
31
0
0
LINE
5
239
100
AcDbEntity
8
0
100
AcDbLine
10
50.21866489906656
20
108.38127909346906
30
0
11
53.406164899066482
21
113.90219104259489
31
0
0
LINE
5
240
100
AcDbEntity
8
0
100
AcDbLine
10
53.406164899066482
20
113.90219104259489
30
0
11
54.668581653445223
21
113.17333438962486
31
0
0
LINE
5
241
100
AcDbEntity
8
0
100
AcDbLine
10
54.668581653445223
20
113.17333438962486
30
0
11
55.438038249865933
21
114.50607230884509
31
0
0
ARC
5
242
100
AcDbEntity
8
0
100
AcDbCircle
10
55.120876330769455
20
115.97215836262367
30
0
40
1.5000000000030087
210
-9.6378164292779695e-32
220
-2.0849719883298117e-32
230
1
100
AcDbArc
50
-77.793171722506301
51
17.793171722525873
0
LINE
5
243
100
AcDbEntity
8
0
100
AcDbLine
10
56.549125057023872
20
116.43053111046288
30
1.4720893378448654e-31
11
56.73476117671332
21
116.75206230148066
31
0
0
ARC
5
244
100
AcDbEntity
8
0
100
AcDbCircle
10
68.14763671955923
20
118.03516921403612
30
0
40
11.484776648767268
210
-1.9569151905691063e-32
220
3.9471527279288051e-31
230
1
100
AcDbArc
50
182.85547458690698
51
186.41461450668504
0
LINE
5
245
100
AcDbEntity
8
0
100
AcDbLine
10
56.677119889345505
20
117.46303433496153
30
1.3620885810042515e-33
11
54.856467345265436
21
118.51418856476933
31
-2.4651903288156619e-31
0
ARC
5
246
100
AcDbEntity
8
0
100
AcDbCircle
10
7.4317106887233475
20
146.36903475116543
30
2.7150157746293331e-44
40
55.000000000000171
210
-1.9975999252174874e-31
220
-3.4010487696332646e-31
230
1
100
AcDbArc
50
289.12781055384056
51
329.57222981175164
0
ARC
5
247
100
AcDbEntity
8
0
100
AcDbCircle
10
27.09230219674664
20
89.681636314170774
30
0
40
4.9999999999993534
210
-9.2227218535590901e-31
220
2.6591880929574069e-30
230
1
100
AcDbArc
50
109.12781055383802
51
149.99999999999952
0
LINE
5
248
100
AcDbEntity
8
0
100
AcDbLine
10
22.76217517782446
20
92.181636314170817
30
-7.4564235388325131e-31
11
-3.1397107136399427e-12
21
52.756392415389939
31
0
0
LINE
5
249
100
AcDbEntity
8
0
100
AcDbLine
10
-3.1397107136399427e-12
20
52.756392415389939
30
0
11
-22.7621751778358
21
92.181636314168003
31
0
0
ARC
5
250
100
AcDbEntity
8
0
100
AcDbCircle
10
-27.092302196757593
20
89.681636314167307
30
0
40
4.9999999999999991
210
0
220
-0
230
1
100
AcDbArc
50
30.000000000009202
51
70.872189446167908
0
ARC
5
251
100
AcDbEntity
8
0
100
AcDbCircle
10
-7.4317106887421813
20
146.36903475116566
30
0
40
54.999999999508617
210
0
220
0
230
1
100
AcDbArc
50
210.42777018825743
51
250.87218944616791
0
LINE
5
252
100
AcDbEntity
8
0
100
AcDbLine
10
-54.856467344856
20
118.514188565011
30
0
11
-55.178458874725791
21
118.32828666973349
31
0
0
LINE
5
253
100
AcDbEntity
8
0
100
AcDbLine
10
-55.178458874725791
20
118.32828666973349
30
0
11
-56.677120126253669
21
117.4630323527401
31
0
0
ARC
5
254
100
AcDbEntity
8
0
100
AcDbCircle
10
-68.147636719562541
20
118.0351692140284
30
1.2780348323189012e-42
40
11.484776510904284
210
9.8246666333206339e-33
220
1.9697035668387933e-31
230
1
100
AcDbArc
50
353.58538549332138
51
357.14451547753509
0
LINE
5
255
100
AcDbEntity
8
0
100
AcDbLine
10
-56.734761176721634
20
116.75206230147481
30
1.4060632869452079e-31
11
-56.549125057031077
21
116.43053111045079
31
-1.2325951644078309e-31
0
ARC
5
256
100
AcDbEntity
8
0
100
AcDbCircle
10
-55.120876330777705
20
115.97215836261819
30
0
40
1.4999999999999889
210
-7.8242332157847467e-32
220
2.5110579221102185e-32
230
1
100
AcDbArc
50
162.2068282777023
51
257.79317172229798
0
LINE
5
257
100
AcDbEntity
8
0
100
AcDbLine
10
-55.438038249878872
20
114.50607230884371
30
1.4398538131348073e-32
11
-54.668581653454964
21
113.17333438961847
31
0
0
LINE
5
258
100
AcDbEntity
8
0
100
AcDbLine
10
-54.668581653454964
20
113.17333438961847
30
0
11
-53.406164899074682
21
113.90219104258945
31
0
0
LINE
5
259
100
AcDbEntity
8
0
100
AcDbLine
10
-53.406164899074682
20
113.90219104258945
30
0
11
-50.218664899074611
21
108.38127909346369
31
0
0
LINE
5
260
100
AcDbEntity
8
0
100
AcDbLine
10
-50.218664899074611
20
108.38127909346369
30
0
11
-51.481081653460549
21
107.65242244050233
31
0
0
LINE
5
261
100
AcDbEntity
8
0
100
AcDbLine
10
-51.481081653460549
20
107.65242244050233
30
0
11
-45.390519767568385
21
97.1032598074936
31
0
0
ELLIPSE
5
262
100
AcDbEntity
8
0
100
AcDbEllipse
10
-45.569458701769662
20
97.007020488228136
30
0
11
0.19910094712232082
21
-0.05334893799369432
31
0.0
40
0.97028752524782558
41
5.5128662742790491
42
7.0535043400848645
0
LINE
5
263
100
AcDbEntity
8
0
100
AcDbLine
10
-45.462612698657132
20
96.834205325801165
30
5.6641399683194686e-32
11
-61.129575418100046
21
87.788880182345594
31
0
0
ELLIPSE
5
264
100
AcDbEntity
8
0
100
AcDbEllipse
10
-61.225814737362889
20
87.967819116548384
30
0
11
-0.053348937993695139
21
-0.19910094712232054
31
0.0
40
0.97028752524782536
41
5.5128662742743888
42
7.0535043400699919
0
LINE
5
265
100
AcDbEntity
8
0
100
AcDbLine
10
-61.398629899790322
20
87.860973113436671
30
-5.8349346867913015e-32
11
-67.489191785681001
21
98.410135746432474
31
0
0
LINE
5
266
100
AcDbEntity
8
0
100
AcDbLine
10
-67.489191785681001
20
98.410135746432474
30
0
11
-68.751608540061525
21
97.681279093463417
31
0
0
LINE
5
267
100
AcDbEntity
8
0
100
AcDbLine
10
-68.751608540061525
20
97.681279093463417
30
0
11
-71.939108540061596
21
103.20219104258918
31
0
0
LINE
5
268
100
AcDbEntity
8
0
100
AcDbLine
10
-71.939108540061596
20
103.20219104258918
30
0
11
-70.676691785682863
21
103.93104769555924
31
0
0
LINE
5
269
100
AcDbEntity
8
0
100
AcDbLine
10
-70.676691785682863
20
103.93104769555924
30
0
11
-71.446148382104042
21
105.2637856147792
31
0
0
ARC
5
270
100
AcDbEntity
8
0
100
AcDbCircle
10
-72.874397108358636
20
105.72215836261792
30
0
40
1.50000000000302
210
-6.0265390131328751e-32
220
-1.8778159717861299e-31
230
1
100
AcDbArc
50
-17.793171722506209
51
77.793171722525884
0
LINE
5
271
100
AcDbEntity
8
0
100
AcDbLine
10
-72.557235189262656
20
107.18824441639663
30
2.8001932943647705e-31
11
-72.742871308948367
21
107.50977560741657
31
0
0
ARC
5
272
100
AcDbEntity
8
0
100
AcDbCircle
10
-68.147636719562541
20
118.0351692140284
30
1.2780348323189012e-42
40
11.484776648770147
210
-9.037040817071081e-32
220
3.9454412918185689e-32
230
1
100
AcDbArc
50
242.8554745868735
51
246.41461450665048
0
LINE
5
273
100
AcDbEntity
8
0
100
AcDbLine
10
-73.387411795006997
20
107.8153428049896
30
-7.0303361194959639e-32
11
-75.208064333356006
21
106.76418856525541
31
0
0
ARC
5
274
100
AcDbEntity
8
0
100
AcDbCircle
10
-123.04344707755402
20
79.620567625592983
30
4.3790577010150533e-45
40
54.999999999999964
210
8.576241666632188e-32
220
4.8664866785086696e-32
230
1
100
AcDbArc
50
-10.872189446159574
51
29.572229811751608
0
ARC
5
275
100
AcDbEntity
8
0
100
AcDbCircle
10
-64.12042420265557
20
68.303440106473062
30
0
40
4.9999999999985869
210
-8.1066585714065245e-31
220
1.5570159901898455e-31
230
1
100
AcDbArc
50
169.12781055384497
51
209.99999999999997
0
LINE
5
276
100
AcDbEntity
8
0
100
AcDbLine
10
-68.450551221577769
20
65.803440106473062
30
0
11
-45.688376043749955
21
26.378196207692245
31
0
0
LINE
5
277
100
AcDbEntity
8
0
100
AcDbLine
10
-45.688376043749955
20
26.378196207692245
30
0
11
-91.212726399405511
21
26.378196207686603
31
0
0
CIRCLE
5
278
100
AcDbEntity
8
0
100
AcDbCircle
10
-55.120876330767828
20
-115.97215836262319
30
0
40
1.0000000000020037
210
-0
220
0
230
1
0
CIRCLE
5
279
100
AcDbEntity
8
0
100
AcDbCircle
10
-36.141282032809869
20
-20.86617891050405
30
0
40
2.4999999999999956
210
-0
220
0
230
1
0
CIRCLE
5
280
100
AcDbEntity
8
0
100
AcDbCircle
10
78.283794211270276
20
-21.378196207688656
30
0
40
2.524999999999995
210
2.4651903288156619e-32
220
6.262131042588703e-62
230
1
0
CIRCLE
5
281
100
AcDbEntity
8
0
100
AcDbCircle
10
17.047094010936387
20
9.8421443161164479
30
0
40
2.5
210
-0
220
0
230
1
0
LWPOLYLINE
5
282
100
AcDbEntity
8
0
100
AcDbPolyline
90
7
70
1
43
0.0
10
-30.38689530973442
20
-85.388038976132123
10
-31.559411484281441
20
-85.702213738214994
10
-58.440588515708747
20
-70.182358942989566
10
-58.754763277790822
20
-69.009842768441956
10
-33.367867968062768
20
-25.03845024554515
10
-5.0000000000000311
20
-8.6602540378443589
10
-4.9999999999964517
20
-41.416646453234648
0
CIRCLE
5
283
100
AcDbEntity
8
0
100
AcDbCircle
10
-72.874397108358636
20
105.72215836261792
30
0
40
1.0000000000020037
210
-0
220
0
230
1
0
CIRCLE
5
284
100
AcDbEntity
8
0
100
AcDbCircle
10
-55.120876330777705
20
115.97215836261819
30
0
40
1.0000000000020037
210
-0
220
0
230
1
0
CIRCLE
5
285
100
AcDbEntity
8
0
100
AcDbCircle
10
17.047094010937649
20
-9.8421443161142452
30
0
40
2.5
210
-0
220
0
230
1
0
CIRCLE
5
286
100
AcDbEntity
8
0
100
AcDbCircle
10
-78.28379421127093
20
-21.378196207700281
30
0
40
2.524999999999995
210
2.4651903288156619e-32
220
6.262131042588703e-62
230
1
0
CIRCLE
5
287
100
AcDbEntity
8
0
100
AcDbCircle
10
51.459059108698568
20
45.4090682092219
30
0
40
2.5
210
-0
220
0
230
1
0
CIRCLE
5
288
100
AcDbEntity
8
0
100
AcDbCircle
10
-1.2916358642137997e-12
20
19.684288632230711
30
0
40
2.5000000000000009
210
-0
220
0
230
1
0
CIRCLE
5
289
100
AcDbEntity
8
0
100
AcDbCircle
10
1.230790847734556e-12
20
-19.684288632230697
30
0
40
2.5
210
-0
220
0
230
1
0
CIRCLE
5
290
100
AcDbEntity
8
0
100
AcDbCircle
10
55.120876330779382
20
-115.97215836261779
30
0
40
1.0000000000020037
210
-0
220
0
230
1
0
LWPOLYLINE
5
291
100
AcDbEntity
8
0
100
AcDbPolyline
90
7
70
1
43
0.0
10
-58.754763277799
20
69.009842768434339
10
-58.440588515717181
20
70.182358942981608
10
-31.559411484292518
20
85.702213738211725
10
-30.386895309745196
20
85.388038976128939
10
-5.0000000000034595
20
41.416646453239998
10
-4.9999999999999067
20
8.660254037844437
10
-33.367867968061624
20
25.038450245536499
0
CIRCLE
5
292
100
AcDbEntity
8
0
100
AcDbCircle
10
55.120876330769455
20
115.97215836262367
30
0
40
1.0000000000020037
210
-0
220
0
230
1
0
CIRCLE
5
293
100
AcDbEntity
8
0
100
AcDbCircle
10
1.8169886047366387e-12
20
-30.708323226617068
30
0
40
2.5
210
-0
220
0
230
1
0
CIRCLE
5
294
100
AcDbEntity
8
0
100
AcDbCircle
10
57.655958108592067
20
-57.106656387743712
30
0
40
2.5250000000000039
210
-0
220
0
230
1
0
CIRCLE
5
295
100
AcDbEntity
8
0
100
AcDbCircle
10
42.895876330769724
20
94.797837240093997
30
0
40
1.0000000000020037
210
-0
220
0
230
1
0
CIRCLE
5
296
100
AcDbEntity
8
0
100
AcDbCircle
10
-4.5319590256745252
20
53.498708489737233
30
0
40
2.5000000000000004
210
-0
220
0
230
1
0
CIRCLE
5
297
100
AcDbEntity
8
0
100
AcDbCircle
10
72.874397108350649
20
105.72215836262389
30
0
40
1.0000000000020037
210
-0
220
0
230
1
0
CIRCLE
5
298
100
AcDbEntity
8
0
100
AcDbCircle
10
-20.627836102678842
20
-78.484852595443954
30
0
40
2.5249999999999995
210
-0
220
0
230
1
0
CIRCLE
5
299
100
AcDbEntity
8
0
100
AcDbCircle
10
103.54527343912899
20
10.250000000005635
30
0
40
1.0000000000020037
210
-0
220
0
230
1
0
CIRCLE
5
300
100
AcDbEntity
8
0
100
AcDbCircle
10
26.594188021873197
20
15.354161613310168
30
0
40
2.5
210
-0
220
0
230
1
0
CIRCLE
5
301
100
AcDbEntity
8
0
100
AcDbCircle
10
-13.595877077008611
20
-67.269386547590614
30
0
40
2.5
210
-0
220
0
230
1
0
CIRCLE
5
302
100
AcDbEntity
8
0
100
AcDbCircle
10
-65.054936185712904
20
-21.860318338375325
30
0
40
2.5
210
-0
220
0
230
1
0
CIRCLE
5
303
100
AcDbEntity
8
0
100
AcDbCircle
10
48.597220134604953
20
22.824562599730566
30
0
40
2.5
210
-0
220
0
230
1
0
CIRCLE
5
304
100
AcDbEntity
8
0
100
AcDbCircle
10
-9.0639180513380957
20
-60.384047518664168
30
0
40
2.5
210
-0
220
0
230
1
0
CIRCLE
5
305
100
AcDbEntity
8
0
100
AcDbCircle
10
60.649397108360048
20
-84.547837240088143
30
0
40
1.0000000000020037
210
-0
220
0
230
1
0
CIRCLE
5
306
100
AcDbEntity
8
0
100
AcDbCircle
10
47.762160108820801
20
-38.041607049611244
30
0
40
2.5
210
-0
220
0
230
1
0
CIRCLE
5
307
100
AcDbEntity
8
0
100
AcDbCircle
10
60.649397108350911
20
84.547837240094196
30
0
40
1.0000000000020037
210
-0
220
0
230
1
0
CIRCLE
5
308
100
AcDbEntity
8
0
100
AcDbCircle
10
-65.054936185715746
20
21.860318338367048
30
0
40
2.5
210
-0
220
0
230
1
0
CIRCLE
5
309
100
AcDbEntity
8
0
100
AcDbCircle
10
-4.531959025667633
20
-53.498708489737751
30
0
40
2.5000000000000004
210
-0
220
0
230
1
0
CIRCLE
5
310
100
AcDbEntity
8
0
100
AcDbCircle
10
20.627836102688516
20
-78.484852595437545
30
0
40
2.5249999999999995
210
-0
220
0
230
1
0
LWPOLYLINE
5
311
100
AcDbEntity
8
0
100
AcDbPolyline
90
7
70
1
43
0.0
10
89.14165858753347
20
16.378196207697879
10
89.99999999999865
20
15.519854795233474
10
90.00000000000135
20
-15.519854795222088
10
89.141658587536028
20
-16.378196207686894
10
38.367867968066207
20
-16.378196207694774
10
10.000000000000009
20
-2.6645352591003757e-14
10
38.367867968058121
20
16.378196207698203
0
CIRCLE
5
312
100
AcDbEntity
8
0
100
AcDbCircle
10
127.99527343912898
20
10.250000000005945
30
0
40
1.0000000000020037
210
-0
220
0
230
1
0
CIRCLE
5
313
100
AcDbEntity
8
0
100
AcDbCircle
10
65.054936185712961
20
21.860318338375372
30
0
40
2.5
210
-0
220
0
230
1
0
CIRCLE
5
314
100
AcDbEntity
8
0
100
AcDbCircle
10
56.826078160158943
20
22.342440469052974
30
0
40
2.5
210
-0
220
0
230
1
0
LWPOLYLINE
5
315
100
AcDbEntity
8
0
100
AcDbPolyline
90
7
70
1
43
0.0
10
58.754763277798986
20
-69.009842768434339
10
58.440588515717167
20
-70.182358942981608
10
31.5594114842925
20
-85.702213738211697
10
30.386895309745118
20
-85.388038976128925
10
5.000000000003415
20
-41.416646453239956
10
4.9999999999999512
20
-8.6602540378443962
10
33.367867968061617
20
-25.038450245536488
0
CIRCLE
5
316
100
AcDbEntity
8
0
100
AcDbCircle
10
-127.99527343912763
20
10.249999999994531
30
0
40
1.0000000000020037
210
-0
220
0
230
1
0
CIRCLE
5
317
100
AcDbEntity
8
0
100
AcDbCircle
10
-57.655958108592067
20
57.106656387743726
30
0
40
2.5250000000000039
210
-0
220
0
230
1
0
CIRCLE
5
318
100
AcDbEntity
8
0
100
AcDbCircle
10
65.054936185715789
20
-21.860318338366994
30
0
40
2.5
210
-0
220
0
230
1
0
CIRCLE
5
319
100
AcDbEntity
8
0
100
AcDbCircle
10
-13.595877077017208
20
67.269386547588951
30
0
40
2.5
210
-0
220
0
230
1
0
CIRCLE
5
320
100
AcDbEntity
8
0
100
AcDbCircle
10
47.762160108815934
20
38.041607049617411
30
0
40
2.5
210
-0
220
0
230
1
0
CIRCLE
5
321
100
AcDbEntity
8
0
100
AcDbCircle
10
-42.895876330777433
20
94.797837240088825
30
0
40
1.0000000000020037
210
-0
220
0
230
1
0
LWPOLYLINE
5
322
100
AcDbEntity
8
0
100
AcDbPolyline
90
7
70
1
43
0.0
10
-89.141658587533442
20
-16.378196207697826
10
-89.99999999999865
20
-15.519854795233424
10
-90.000000000001336
20
15.519854795222138
10
-89.141658587535986
20
16.378196207686948
10
-38.367867968066221
20
16.378196207694813
10
-9.9999999999999645
20
6.4392935428259079e-14
10
-38.367867968058079
20
-16.378196207698153
0
CIRCLE
5
323
100
AcDbEntity
8
0
100
AcDbCircle
10
103.54527343912926
20
-10.249999999994436
30
0
40
1.0000000000020037
210
-0
220
0
230
1
0
CIRCLE
5
324
100
AcDbEntity
8
0
100
AcDbCircle
10
-1.8955971896098846e-12
20
30.708323226617139
30
0
40
2.5000000000000009
210
-0
220
0
230
1
0
CIRCLE
5
325
100
AcDbEntity
8
0
100
AcDbCircle
10
127.99527343912926
20
-10.24999999999411
30
0
40
1.0000000000020037
210
-0
220
0
230
1
0
CIRCLE
5
326
100
AcDbEntity
8
0
100
AcDbCircle
10
-17.047094010936398
20
-9.8421443161164284
30
0
40
2.5
210
-0
220
0
230
1
0
LWPOLYLINE
5
327
100
AcDbEntity
8
0
100
AcDbPolyline
90
7
70
1
43
0.0
10
30.386895309734445
20
85.388038976132194
10
31.559411484281448
20
85.70221373821505
10
58.440588515708782
20
70.182358942989595
10
58.754763277790858
20
69.009842768441999
10
33.367867968062789
20
25.038450245545203
10
5.0000000000000577
20
8.660254037844382
10
4.9999999999964784
20
41.416646453234677
0
CIRCLE
5
328
100
AcDbEntity
8
0
100
AcDbCircle
10
-44.065261108937285
20
30.674145890007271
30
0
40
2.5
210
-0
220
0
230
1
0
CIRCLE
5
329
100
AcDbEntity
8
0
100
AcDbCircle
10
-44.065261108933342
20
-30.674145890012884
30
0
40
2.5
210
-0
220
0
230
1
0
CIRCLE
5
330
100
AcDbEntity
8
0
100
AcDbCircle
10
-51.459059108698533
20
-45.40906820922185
30
0
40
2.5
210
-0
220
0
230
1
0
CIRCLE
5
331
100
AcDbEntity
8
0
100
AcDbCircle
10
-2.6949577673399977e-12
20
41.732357821003561
30
0
40
2.4999999999999973
210
2.4651903288156619e-32
220
6.2621310425887047e-62
230
1
0
CIRCLE
5
332
100
AcDbEntity
8
0
100
AcDbCircle
10
44.065261108933392
20
30.67414589001292
30
0
40
2.5
210
-0
220
0
230
1
0
CIRCLE
5
333
100
AcDbEntity
8
0
100
AcDbCircle
10
-57.655958108581657
20
-57.106656387748842
30
0
40
2.5250000000000039
210
-0
220
0
230
1
0
CIRCLE
5
334
100
AcDbEntity
8
0
100
AcDbCircle
10
-60.649397108349262
20
-84.547837240093713
30
0
40
1.0000000000020037
210
-0
220
0
230
1
0
CIRCLE
5
335
100
AcDbEntity
8
0
100
AcDbCircle
10
44.065261108937285
20
-30.674145890007253
30
0
40
2.5
210
-0
220
0
230
1
0
CIRCLE
5
336
100
AcDbEntity
8
0
100
AcDbCircle
10
-72.874397108349001
20
-105.72215836262339
30
0
40
1.0000000000020037
210
-0
220
0
230
1
0
CIRCLE
5
337
100
AcDbEntity
8
0
100
AcDbCircle
10
9.0639180513381046
20
60.384047518664218
30
0
40
2.5
210
-0
220
0
230
1
0
CIRCLE
5
338
100
AcDbEntity
8
0
100
AcDbCircle
10
72.874397108360299
20
-105.72215836261755
30
0
40
1.0000000000020037
210
-0
220
0
230
1
0
CIRCLE
5
339
100
AcDbEntity
8
0
100
AcDbCircle
10
26.594188021875045
20
-15.354161613306918
30
0
40
2.5
210
-0
220
0
230
1
0
CIRCLE
5
340
100
AcDbEntity
8
0
100
AcDbCircle
10
-78.283794211270219
20
21.378196207688699
30
0
40
2.524999999999995
210
2.4651903288156619e-32
220
6.262131042588703e-62
230
1
0
CIRCLE
5
341
100
AcDbEntity
8
0
100
AcDbCircle
10
4.5319590256744817
20
-53.498708489737183
30
0
40
2.5
210
-0
220
0
230
1
0
CIRCLE
5
342
100
AcDbEntity
8
0
100
AcDbCircle
10
-103.54527343912737
20
-10.250000000005217
30
0
40
1.0000000000020037
210
-0
220
0
230
1
0
CIRCLE
5
343
100
AcDbEntity
8
0
100
AcDbCircle
10
36.141282032812583
20
-20.866178910499421
30
0
40
2.4999999999999956
210
-0
220
0
230
1
0
CIRCLE
5
344
100
AcDbEntity
8
0
100
AcDbCircle
10
-42.895876330768068
20
-94.797837240093514
30
0
40
1.0000000000020037
210
-0
220
0
230
1
0
CIRCLE
5
345
100
AcDbEntity
8
0
100
AcDbCircle
10
-48.597220134607852
20
22.824562599724313
30
0
40
2.5
210
-0
220
0
230
1
0
CIRCLE
5
346
100
AcDbEntity
8
0
100
AcDbCircle
10
-127.99527343912737
20
-10.250000000005526
30
0
40
1.0000000000020037
210
-0
220
0
230
1
0
CIRCLE
5
347
100
AcDbEntity
8
0
100
AcDbCircle
10
9.0639180513458495
20
-60.38404751866301
30
0
40
2.5
210
-0
220
0
230
1
0
CIRCLE
5
348
100
AcDbEntity
8
0
100
AcDbCircle
10
42.895876330779117
20
-94.797837240088413
30
0
40
1.0000000000020037
210
-0
220
0
230
1
0
CIRCLE
5
349
100
AcDbEntity
8
0
100
AcDbCircle
10
51.459059108704324
20
-45.409068209215306
30
0
40
2.5
210
-0
220
0
230
1
0
CIRCLE
5
350
100
AcDbEntity
8
0
100
AcDbCircle
10
36.141282032809919
20
20.866178910504086
30
0
40
2.4999999999999956
210
-0
220
0
230
1
0
CIRCLE
5
351
100
AcDbEntity
8
0
100
AcDbCircle
10
-20.627836102688541
20
78.484852595437616
30
0
40
2.5249999999999995
210
-0
220
0
230
1
0
CIRCLE
5
352
100
AcDbEntity
8
0
100
AcDbCircle
10
20.62783610267887
20
78.484852595444025
30
0
40
2.5249999999999995
210
-0
220
0
230
1
0
CIRCLE
5
353
100
AcDbEntity
8
0
100
AcDbCircle
10
-26.59418802187502
20
15.354161613306953
30
0
40
2.5
210
-0
220
0
230
1
0
CIRCLE
5
354
100
AcDbEntity
8
0
100
AcDbCircle
10
-26.594188021873137
20
-15.35416161331012
30
0
40
2.5
210
-0
220
0
230
1
0
CIRCLE
5
355
100
AcDbEntity
8
0
100
AcDbCircle
10
-47.762160108815898
20
-38.041607049617376
30
0
40
2.5
210
-0
220
0
230
1
0
CIRCLE
5
356
100
AcDbEntity
8
0
100
AcDbCircle
10
4.5319590256676427
20
53.498708489737801
30
0
40
2.5
210
-0
220
0
230
1
0
CIRCLE
5
357
100
AcDbEntity
8
0
100
AcDbCircle
10
-17.047094010937659
20
9.8421443161142861
30
0
40
2.5
210
-0
220
0
230
1
0
CIRCLE
5
358
100
AcDbEntity
8
0
100
AcDbCircle
10
-48.597220134604903
20
-22.824562599730523
30
0
40
2.5
210
-0
220
0
230
1
0
CIRCLE
5
359
100
AcDbEntity
8
0
100
AcDbCircle
10
57.655958108581693
20
57.106656387748899
30
0
40
2.5250000000000039
210
-0
220
0
230
1
0
CIRCLE
5
360
100
AcDbEntity
8
0
100
AcDbCircle
10
48.597220134607902
20
-22.82456259972426
30
0
40
2.5
210
-0
220
0
230
1
0
CIRCLE
5
361
100
AcDbEntity
8
0
100
AcDbCircle
10
-47.762160108820801
20
38.041607049611265
30
0
40
2.5
210
-0
220
0
230
1
0
CIRCLE
5
362
100
AcDbEntity
8
0
100
AcDbCircle
10
13.595877077017146
20
-67.269386547588908
30
0
40
2.5
210
-0
220
0
230
1
0
CIRCLE
5
363
100
AcDbEntity
8
0
100
AcDbCircle
10
2.6341127508607537e-12
20
-41.732357821003497
30
0
40
2.4999999999999964
210
-0
220
0
230
1
0
CIRCLE
5
364
100
AcDbEntity
8
0
100
AcDbCircle
10
-36.141282032812533
20
20.866178910499475
30
0
40
2.4999999999999956
210
-0
220
0
230
1
0
CIRCLE
5
365
100
AcDbEntity
8
0
100
AcDbCircle
10
56.826078160161835
20
-22.342440469045584
30
0
40
2.5
210
-0
220
0
230
1
0
CIRCLE
5
366
100
AcDbEntity
8
0
100
AcDbCircle
10
-56.826078160158886
20
-22.342440469052928
30
0
40
2.5
210
-0
220
0
230
1
0
CIRCLE
5
367
100
AcDbEntity
8
0
100
AcDbCircle
10
-56.826078160161764
20
22.342440469045638
30
0
40
2.5
210
-0
220
0
230
1
0
CIRCLE
5
368
100
AcDbEntity
8
0
100
AcDbCircle
10
-103.54527343912764
20
10.249999999994852
30
0
40
1.0000000000020037
210
-0
220
0
230
1
0
CIRCLE
5
369
100
AcDbEntity
8
0
100
AcDbCircle
10
-60.649397108358357
20
84.547837240088555
30
0
40
1.0000000000020037
210
-0
220
0
230
1
0
CIRCLE
5
370
100
AcDbEntity
8
0
100
AcDbCircle
10
-51.459059108704324
20
45.409068209215313
30
0
40
2.5
210
-0
220
0
230
1
0
CIRCLE
5
371
100
AcDbEntity
8
0
100
AcDbCircle
10
78.283794211270987
20
21.378196207700334
30
0
40
2.524999999999995
210
2.4651903288156619e-32
220
6.262131042588703e-62
230
1
0
CIRCLE
5
372
100
AcDbEntity
8
0
100
AcDbCircle
10
13.595877077008602
20
67.269386547590656
30
0
40
2.5
210
-0
220
0
230
1
0
CIRCLE
5
373
100
AcDbEntity
8
0
100
AcDbCircle
10
-9.0639180513458939
20
60.384047518663053
30
0
40
2.5
210
-0
220
0
230
1
0
CIRCLE
5
374
100
AcDbEntity
8
0
100
AcDbCircle
10
5.1046285483831709e-15
20
-1.4310806703844776e-16
30
0
40
2.5000000000000009
210
-0
220
0
230
1
0
CIRCLE
5
375
100
AcDbEntity
8
0
100
AcDbCircle
10
-95.084360804442753
20
-17.506561802657757
30
0
40
1.5499999999999934
210
2.4651903288156674e-32
220
-3.9443045261050599e-31
230
1
0
CIRCLE
5
376
100
AcDbEntity
8
0
100
AcDbCircle
10
48.019878987732127
20
83.17287018007228
30
0
40
1.5500000000000116
210
2.6940100914607256e-31
220
7.2185782840819878e-32
230
1
0
CIRCLE
5
377
100
AcDbEntity
8
0
100
AcDbCircle
10
32.381053148197395
20
91.098752860581683
30
0
40
1.5499999999999936
210
0
220
-0
230
1
0
CIRCLE
5
378
100
AcDbEntity
8
0
100
AcDbCircle
10
62.703307656235381
20
73.592191057928787
30
0
40
1.5499999999999936
210
0
220
-0
230
1
0
CIRCLE
5
379
100
AcDbEntity
8
0
100
AcDbCircle
10
-48.019878987732163
20
-83.172870180072266
30
0
40
1.5500000000000114
210
9.8607613152626421e-32
220
1.7079339599344612e-31
230
1
0
CIRCLE
5
380
100
AcDbEntity
8
0
100
AcDbCircle
10
-62.703307656235417
20
-73.592191057928773
30
0
40
1.5499999999999938
210
7.2185782840819757e-32
220
-2.6940100914607264e-31
230
1
0
CIRCLE
5
381
100
AcDbEntity
8
0
100
AcDbCircle
10
96.039757975473847
20
5.4632643961133574e-12
30
0
40
1.5500000000000114
210
0
220
-0
230
1
0
CIRCLE
5
382
100
AcDbEntity
8
0
100
AcDbCircle
10
95.084360804442753
20
17.506561802657746
30
0
40
1.5499999999999934
210
2.4651903288156624e-32
220
-3.9443045261050599e-31
230
1
0
ENDSEC
0
SECTION
2
OBJECTS
0
DICTIONARY
5
C
100
AcDbDictionary
3
ACAD_GROUP
350
D
3
ACAD_MLINESTYLE
350
17
0
DICTIONARY
5
D
100
AcDbDictionary
0
DICTIONARY
5
1A
330
C
100
AcDbDictionary
0
DICTIONARY
5
17
100
AcDbDictionary
0
ENDSEC
0
EOF
