0
SECTION
2
HEADER
9
$INSUNITS
70
4
9
$ACADVER
1
AC1014
9
$HANDSEED
5
FFFF
0
ENDSEC
0
SECTION
2
TABLES
0
TABLE
2
VPORT
5
8
100
AcDbSymbolTable
0
ENDTAB
0
TABLE
2
LTYPE
5
5
100
AcDbSymbolTable
0
LTYPE
5
14
100
AcDbSymbolTableRecord
100
AcDbLinetypeTableRecord
2
BYBLOCK
70
0
0
LTYPE
5
15
100
AcDbSymbolTableRecord
100
AcDbLinetypeTableRecord
2
BYLAYER
70
0
0
ENDTAB
0
TABLE
2
LAYER
5
2
100
AcDbSymbolTable
70
2
0
LAYER
5
50
100
AcDbSymbolTableRecord
100
AcDbLayerTableRecord
2
0
70
0
6
CONTINUOUS
0
ENDTAB
0
TABLE
2
STYLE
5
3
100
AcDbSymbolTable
70
1
0
STYLE
5
11
100
AcDbSymbolTableRecord
100
AcDbTextStyleTableRecord
2
STANDARD
70
0
0
ENDTAB
0
TABLE
2
VIEW
5
6
100
AcDbSymbolTable
70
0
0
ENDTAB
0
TABLE
2
UCS
5
7
100
AcDbSymbolTable
70
0
0
ENDTAB
0
TABLE
2
APPID
5
9
100
AcDbSymbolTable
70
2
0
APPID
5
12
100
AcDbSymbolTableRecord
100
AcDbRegAppTableRecord
2
ACAD
70
0
0
ENDTAB
0
TABLE
2
DIMSTYLE
5
A
100
AcDbSymbolTable
70
1
0
ENDTAB
0
TABLE
2
BLOCK_RECORD
5
1
100
AcDbSymbolTable
70
1
0
BLOCK_RECORD
5
1F
100
AcDbSymbolTableRecord
100
AcDbBlockTableRecord
2
*MODEL_SPACE
0
BLOCK_RECORD
5
1B
100
AcDbSymbolTableRecord
100
AcDbBlockTableRecord
2
*PAPER_SPACE
0
ENDTAB
0
ENDSEC
0
SECTION
2
BLOCKS
0
BLOCK
5
20
100
AcDbEntity
100
AcDbBlockBegin
2
*MODEL_SPACE
0
ENDBLK
5
21
100
AcDbEntity
100
AcDbBlockEnd
0
BLOCK
5
1C
100
AcDbEntity
100
AcDbBlockBegin
2
*PAPER_SPACE
0
ENDBLK
5
1D
100
AcDbEntity
100
AcDbBlockEnd
0
ENDSEC
0
SECTION
2
ENTITIES
0
CIRCLE
5
100
100
AcDbEntity
8
0
100
AcDbCircle
10
-20.627836102688413
20
78.48485259543844
30
0
40
2.2499999999999964
210
-1.4791141972893949e-31
220
-2.5619009399016929e-31
230
1
0
CIRCLE
5
101
100
AcDbEntity
8
0
100
AcDbCircle
10
20.627836102679087
20
78.484852595444877
30
0
40
2.2499999999999964
210
-1.4791141972893949e-31
220
-2.5619009399016929e-31
230
1
0
CIRCLE
5
102
100
AcDbEntity
8
0
100
AcDbCircle
10
-10.000000000004148
20
71.654725576517379
30
0
40
1.25
210
-0
220
0
230
1
0
CIRCLE
5
103
100
AcDbEntity
8
0
100
AcDbCircle
10
9.9999999999958664
20
71.654725576518132
30
0
40
1.25
210
-0
220
0
230
1
0
CIRCLE
5
104
100
AcDbEntity
8
0
100
AcDbCircle
10
-4.1339520073262996e-12
20
71.654725576517521
30
0
40
1.25
210
-0
220
0
230
1
0
CIRCLE
5
105
100
AcDbEntity
8
0
100
AcDbCircle
10
-78.28379421127093
20
21.378196207689278
30
0
40
2.2499999999999964
210
-8.5396697996723073e-32
220
-4.9303806576313293e-32
230
1
0
CIRCLE
5
106
100
AcDbEntity
8
0
100
AcDbCircle
10
-57.655958108592742
20
57.10665638774433
30
0
40
2.2499999999999964
210
-8.5396697996723073e-32
220
-4.9303806576313293e-32
230
1
0
CIRCLE
5
107
100
AcDbEntity
8
0
100
AcDbCircle
10
-67.054812650468676
20
27.167108750410716
30
0
40
1.25
210
-1.9721522630525313e-31
220
3.4158679198689216e-31
230
1
0
CIRCLE
5
108
100
AcDbEntity
8
0
100
AcDbCircle
10
-57.054812650469316
20
44.487616826099895
30
0
40
1.25
210
-1.9721522630525313e-31
220
3.4158679198689216e-31
230
1
0
CIRCLE
5
109
100
AcDbEntity
8
0
100
AcDbCircle
10
-62.054812650468783
20
35.827362788255193
30
0
40
1.25
210
-1.9721522630525313e-31
220
3.4158679198689216e-31
230
1
0
CIRCLE
5
110
100
AcDbEntity
8
0
100
AcDbCircle
10
-57.655958108582546
20
-57.10665638774914
30
0
40
2.2499999999999964
210
4.8303799127570222e-47
220
-3.944304526105059e-31
230
1
0
CIRCLE
5
111
100
AcDbEntity
8
0
100
AcDbCircle
10
-78.283794211271854
20
-21.378196207700519
30
0
40
2.2499999999999964
210
4.8303799127570222e-47
220
-3.944304526105059e-31
230
1
0
CIRCLE
5
112
100
AcDbEntity
8
0
100
AcDbCircle
10
-57.054812650464548
20
-44.487616826106631
30
0
40
1.25
210
3.944304526105059e-31
220
4.8303799127569376e-47
230
1
0
CIRCLE
5
113
100
AcDbEntity
8
0
100
AcDbCircle
10
-67.054812650465209
20
-27.167108750418226
30
0
40
1.25
210
3.944304526105059e-31
220
4.8303799127569376e-47
230
1
0
CIRCLE
5
114
100
AcDbEntity
8
0
100
AcDbCircle
10
-62.05481265046469
20
-35.827362788262306
30
0
40
1.25
210
3.944304526105059e-31
220
4.8303799127569376e-47
230
1
0
CIRCLE
5
115
100
AcDbEntity
8
0
100
AcDbCircle
10
20.627836102688395
20
-78.484852595438468
30
0
40
2.2499999999999969
210
1.9367537225795275e-31
220
-4.5340532029542216e-31
230
1
0
CIRCLE
5
116
100
AcDbEntity
8
0
100
AcDbCircle
10
-20.627836102679112
20
-78.484852595444877
30
0
40
2.2499999999999969
210
1.9367537225795275e-31
220
-4.5340532029542216e-31
230
1
0
CIRCLE
5
117
100
AcDbEntity
8
0
100
AcDbCircle
10
10.000000000004125
20
-71.654725576517379
30
0
40
1.25
210
9.8607613152626421e-32
220
1.7079339599344612e-31
230
1
0
CIRCLE
5
118
100
AcDbEntity
8
0
100
AcDbCircle
10
-9.9999999999958877
20
-71.654725576518132
30
0
40
1.25
210
9.8607613152626421e-32
220
1.7079339599344612e-31
230
1
0
CIRCLE
5
119
100
AcDbEntity
8
0
100
AcDbCircle
10
4.1072616876551236e-12
20
-71.654725576517521
30
0
40
1.25
210
9.8607613152626421e-32
220
1.7079339599344612e-31
230
1
0
CIRCLE
5
120
100
AcDbEntity
8
0
100
AcDbCircle
10
78.28379421127093
20
-21.378196207689314
30
0
40
2.2499999999999964
210
0
220
-0
230
1
0
CIRCLE
5
121
100
AcDbEntity
8
0
100
AcDbCircle
10
57.655958108592735
20
-57.106656387744351
30
0
40
2.2499999999999964
210
0
220
-0
230
1
0
CIRCLE
5
122
100
AcDbEntity
8
0
100
AcDbCircle
10
67.054812650468676
20
-27.167108750410751
30
0
40
1.25
210
0
220
-0
230
1
0
CIRCLE
5
123
100
AcDbEntity
8
0
100
AcDbCircle
10
57.054812650469309
20
-44.487616826099909
30
0
40
1.25
210
0
220
-0
230
1
0
CIRCLE
5
124
100
AcDbEntity
8
0
100
AcDbCircle
10
62.05481265046879
20
-35.827362788255222
30
0
40
1.25
210
0
220
-0
230
1
0
CIRCLE
5
125
100
AcDbEntity
8
0
100
AcDbCircle
10
57.655958108582567
20
57.10665638774914
30
0
40
2.2499999999999964
210
0
220
-3.944304526105059e-31
230
1
0
CIRCLE
5
126
100
AcDbEntity
8
0
100
AcDbCircle
10
78.283794211271868
20
21.378196207700508
30
0
40
2.2499999999999964
210
0
220
-3.944304526105059e-31
230
1
0
CIRCLE
5
127
100
AcDbEntity
8
0
100
AcDbCircle
10
57.054812650464569
20
44.487616826106631
30
0
40
1.25
210
0
220
0
230
1
0
CIRCLE
5
128
100
AcDbEntity
8
0
100
AcDbCircle
10
67.054812650465223
20
27.167108750418215
30
0
40
1.25
210
0
220
0
230
1
0
CIRCLE
5
129
100
AcDbEntity
8
0
100
AcDbCircle
10
62.054812650464697
20
35.827362788262299
30
0
40
1.25
210
0
220
0
230
1
0
CIRCLE
5
130
100
AcDbEntity
8
0
100
AcDbCircle
10
-48.01987898774172
20
83.172870180066809
30
0
40
1.5500000000000114
210
0
220
-0
230
1
0
CIRCLE
5
131
100
AcDbEntity
8
0
100
AcDbCircle
10
-62.703307656245343
20
73.592191057923941
30
0
40
1.5499999999999934
210
4.7982715060722929e-31
220
-6.3386977739747091e-31
230
1
0
CIRCLE
5
132
100
AcDbEntity
8
0
100
AcDbCircle
10
-32.381053148206639
20
91.098752860575601
30
0
40
1.5499999999999934
210
4.7982715060722929e-31
220
-6.3386977739747091e-31
230
1
0
CIRCLE
5
133
100
AcDbEntity
8
0
100
AcDbCircle
10
48.019878987741691
20
-83.172870180066823
30
0
40
1.5500000000000114
210
-1.7079339599344612e-31
220
-9.8607613152626498e-32
230
1
0
CIRCLE
5
134
100
AcDbEntity
8
0
100
AcDbCircle
10
32.381053148206625
20
-91.098752860575601
30
0
40
1.5499999999999932
210
0
220
-0
230
1
0
CIRCLE
5
135
100
AcDbEntity
8
0
100
AcDbCircle
10
-48.019878987732206
20
-83.172870180072323
30
0
40
1.5500000000000114
210
-4.930380657631321e-32
220
-8.5396697996723062e-32
230
1
0
CIRCLE
5
136
100
AcDbEntity
8
0
100
AcDbCircle
10
-32.381053148197481
20
-91.098752860581726
30
0
40
1.5499999999999938
210
-4.9303806576313227e-32
220
-8.5396697996723106e-32
230
1
0
CIRCLE
5
137
100
AcDbEntity
8
0
100
AcDbCircle
10
95.084360804442099
20
-17.506561802646814
30
0
40
1.5499999999999934
210
3.9443045261050599e-31
220
-3.9443045261050599e-31
230
1
0
CIRCLE
5
138
100
AcDbEntity
8
0
100
AcDbCircle
10
95.084360804442824
20
17.506561802657735
30
0
40
1.5499999999999934
210
3.9443045261050599e-31
220
-3.9443045261050599e-31
230
1
0
CIRCLE
5
139
100
AcDbEntity
8
0
100
AcDbCircle
10
-95.084360804442071
20
17.506561802646804
30
0
40
1.5499999999999934
210
4.8303799127570231e-47
220
-3.9443045261050599e-31
230
1
0
LINE
5
140
100
AcDbEntity
8
0
100
AcDbLine
10
91.212726399402229
20
26.378196207698057
30
0
11
73.283794211267818
21
26.378196207698082
31
0
0
LINE
5
141
100
AcDbEntity
8
0
100
AcDbLine
10
73.283794211267818
20
26.378196207698082
30
0
11
59.486085127505824
21
50.276529368827241
31
0
0
LINE
5
142
100
AcDbEntity
8
0
100
AcDbLine
10
59.486085127505824
20
50.276529368827241
30
0
11
68.450551221570564
21
65.803440106481645
31
0
0
ARC
5
143
100
AcDbEntity
8
0
100
AcDbCircle
10
64.120424202647968
20
68.303440106480963
30
0
40
5.0000000000000107
210
-0
220
0
230
1
100
AcDbArc
50
-29.999999999990905
51
10.872189446168504
0
ARC
5
144
100
AcDbEntity
8
0
100
AcDbCircle
10
123.04344707754595
20
79.620567625610818
30
0
40
54.999999999999993
210
9.7329733570146406e-32
220
1.7152483333265898e-31
230
1
100
AcDbArc
50
150.42777018825731
51
190.87218944616862
0
LINE
5
145
100
AcDbEntity
8
0
100
AcDbLine
10
75.208064333343685
20
106.76418856526578
30
-1.9925317140122533e-45
11
74.886072804914065
21
106.95009046205512
31
0
0
LINE
5
146
100
AcDbEntity
8
0
100
AcDbLine
10
74.886072804914065
20
106.95009046205512
30
0
11
73.29686490847665
21
107.86762006856063
31
0
0
ARC
5
147
100
AcDbEntity
8
0
100
AcDbCircle
10
68.147636719559927
20
118.03516921403474
30
0
40
11.397087635320087
210
-5.3411557739163659e-31
220
-4.69404453870877e-31
230
1
100
AcDbArc
50
277.62037188230573
51
296.85936407402568
0
ELLIPSE
5
148
100
AcDbEntity
8
0
100
AcDbEllipse
10
69.455402407910199
20
106.69745319175574
30
0
11
-0.1390356389215113
21
-0.16330172538687965
31
0.0
40
0.92331301453890335
41
1.7671290940273263
42
2.4370845223566122
0
LINE
5
149
100
AcDbEntity
8
0
100
AcDbLine
10
69.63040656120441
20
106.60340191561676
30
0
11
57.166800702991353
21
85.015803323752692
31
0
0
LINE
5
150
100
AcDbEntity
8
0
100
AcDbLine
10
57.166800702991353
20
85.015803323752692
30
0
11
57.062177826816196
21
84.834591185822546
31
0
0
LINE
5
151
100
AcDbEntity
8
0
100
AcDbLine
10
57.062177826816196
20
84.834591185822546
30
0
11
44.937822173409963
21
91.834591186068849
31
0
0
LINE
5
152
100
AcDbEntity
8
0
100
AcDbLine
10
44.937822173409963
20
91.834591186068849
30
0
11
45.042445049858493
21
92.015803323494524
31
0
0
LINE
5
153
100
AcDbEntity
8
0
100
AcDbLine
10
45.042445049858493
20
92.015803323494524
30
0
11
57.506051226886861
21
113.60340246789129
31
0
0
ELLIPSE
5
154
100
AcDbEntity
8
0
100
AcDbEllipse
10
57.675886819598645
20
113.49783366698799
30
0
11
-0.068448732787498551
21
-0.20417350781653537
31
0.0
40
0.92505936702632652
41
3.828910444468951
42
4.496595089810052
0
ARC
5
155
100
AcDbEntity
8
0
100
AcDbCircle
10
68.147636719559927
20
118.03516921403474
30
0
40
11.397087635319982
210
0
220
0
230
1
100
AcDbArc
50
183.14063589440576
51
202.37962814785431
0
LINE
5
156
100
AcDbEntity
8
0
100
AcDbLine
10
56.767666770550292
20
117.41075706905258
30
0
11
54.856467345265465
21
118.51418856476931
31
0
0
ARC
5
157
100
AcDbEntity
8
0
100
AcDbCircle
10
7.4317106887235473
20
146.36903475116532
30
0
40
55
210
-4.4481816876013371e-31
220
6.8068507403470171e-31
230
1
100
AcDbArc
50
289.12781055384045
51
329.57222981175164
0
ARC
5
158
100
AcDbEntity
8
0
100
AcDbCircle
10
27.092302196747138
20
89.68163631417022
30
0
40
5.0000000000000258
210
2.8434032026033894e-30
220
-8.1983866150324831e-30
230
1
100
AcDbArc
50
109.12781055384096
51
149.99999999999991
0
LINE
5
159
100
AcDbEntity
8
0
100
AcDbLine
10
22.762175177824908
20
92.181636314170248
30
0
11
13.797709083757667
21
76.65472557651735
31
0
0
LINE
5
160
100
AcDbEntity
8
0
100
AcDbLine
10
13.797709083757667
20
76.65472557651735
30
0
11
-13.797709083765145
21
76.654725576516654
31
0
0
LINE
5
161
100
AcDbEntity
8
0
100
AcDbLine
10
-13.797709083765145
20
76.654725576516654
30
0
11
-22.762175177834859
21
92.181636314168202
31
0
0
ARC
5
162
100
AcDbEntity
8
0
100
AcDbCircle
10
-27.092302196756624
20
89.681636314167548
30
0
40
4.9999999999999583
210
1.9721522630530638e-31
220
-3.4158679198686129e-31
230
1
100
AcDbArc
50
30.000000000008935
51
70.87218944616869
0
ARC
5
163
100
AcDbEntity
8
0
100
AcDbCircle
10
-7.4317106887420747
20
146.36903475116569
30
0
40
55
210
8.5026219240823712e-32
220
4.993999813045065e-32
230
1
100
AcDbArc
50
210.42777018825731
51
250.87218944616862
0
LINE
5
164
100
AcDbEntity
8
0
100
AcDbLine
10
-54.856467345279647
20
118.51418856476222
30
5.4234187233944562e-30
11
-55.178458874725713
21
118.32828666973349
31
0
0
LINE
5
165
100
AcDbEntity
8
0
100
AcDbLine
10
-55.178458874725713
20
118.32828666973349
30
0
11
-56.767666770902565
21
117.41075706277657
31
0
0
ARC
5
166
100
AcDbEntity
8
0
100
AcDbCircle
10
-68.147636719567714
20
118.03516921402871
30
0
40
11.397087635319528
210
-0
220
0
230
1
100
AcDbArc
50
337.62037188230516
51
356.85936407402602
0
ELLIPSE
5
167
100
AcDbEntity
8
0
100
AcDbEllipse
10
-57.675003779205639
20
113.49886951119829
30
0
11
0.07190562320611224
21
-0.20205925803086916
31
0.0
40
0.92331301453890324
41
1.7671290940271005
42
2.4370845223564324
0
LINE
5
168
100
AcDbEntity
8
0
100
AcDbLine
10
-57.506050908163843
20
113.60340191564937
30
0
11
-45.042445050014905
21
92.015803323748301
31
0
0
LINE
5
169
100
AcDbEntity
8
0
100
AcDbLine
10
-45.042445050014905
20
92.015803323748301
30
0
11
-44.937822173180905
21
91.834591186198537
31
0
0
LINE
5
170
100
AcDbEntity
8
0
100
AcDbLine
10
-44.937822173180905
20
91.834591186198537
30
0
11
-57.062177826588382
21
84.834591185954409
31
0
0
LINE
5
171
100
AcDbEntity
8
0
100
AcDbLine
10
-57.062177826588382
20
84.834591185954409
30
0
11
-57.166800702848846
21
85.015803323488683
31
0
0
LINE
5
172
100
AcDbEntity
8
0
100
AcDbLine
10
-57.166800702848846
20
85.015803323488683
30
0
11
-69.630406880097439
21
106.60340246775826
31
0
0
ELLIPSE
5
173
100
AcDbEntity
8
0
100
AcDbEllipse
10
-69.454063820312243
20
106.69770000506183
30
0
11
0.14259507815515093
21
-0.16136509535909438
31
0.0
40
0.92505936702632674
41
3.8289104444699094
42
4.4965950898101719
0
ARC
5
174
100
AcDbEntity
8
0
100
AcDbCircle
10
-68.147636719567714
20
118.03516921402871
30
0
40
11.397087635320123
210
8.9102254556015562e-32
220
1.7593928986916813e-31
230
1
100
AcDbArc
50
243.14063589440318
51
262.37962814785146
0
LINE
5
175
100
AcDbEntity
8
0
100
AcDbLine
10
-73.296864914086996
20
107.8676200713919
30
2.2476792172204586e-30
11
-75.208064333355921
21
106.76418856525541
31
0
0
ARC
5
176
100
AcDbEntity
8
0
100
AcDbCircle
10
-123.04344707755394
20
79.62056762559294
30
0
40
55.000000000000007
210
-3.719849774681276e-32
220
-1.9367528818104932e-31
230
1
100
AcDbArc
50
-10.872189446159574
51
29.572229811751644
0
ARC
5
177
100
AcDbEntity
8
0
100
AcDbCircle
10
-64.120424202654249
20
68.303440106472351
30
0
40
4.9999999999998899
210
3.7198497746814118e-32
220
1.9367528818104976e-31
230
1
100
AcDbArc
50
169.12781055384005
51
210.00000000000011
0
LINE
5
178
100
AcDbEntity
8
0
100
AcDbLine
10
-68.450551221576347
20
65.803440106472394
30
-8.4602226715708605e-31
11
-59.486085127509185
21
50.276529368819439
31
0
0
LINE
5
179
100
AcDbEntity
8
0
100
AcDbLine
10
-59.486085127509185
20
50.276529368819439
30
0
11
-73.283794211270049
21
26.378196207689705
31
0
0
LINE
5
180
100
AcDbEntity
8
0
100
AcDbLine
10
-73.283794211270049
20
26.378196207689705
30
0
11
-91.212726399404559
21
26.378196207686784
31
0
0
ARC
5
181
100
AcDbEntity
8
0
100
AcDbCircle
10
-91.212726399403721
20
21.37819620768672
30
0
40
5.0000000000000666
210
0
220
0
230
1
100
AcDbArc
50
90.000000000009607
51
130.87218944616927
0
ARC
5
182
100
AcDbEntity
8
0
100
AcDbCircle
10
-130.47515776628725
20
66.748467125555123
30
0
40
54.999999999999993
210
-7.9472849872823708e-31
220
7.8294933992014492e-31
230
1
100
AcDbArc
50
270.42777018825734
51
310.87218944616859
0
LINE
5
183
100
AcDbEntity
8
0
100
AcDbLine
10
-130.06453167862256
20
11.749999999496703
30
4.3387349787155638e-29
11
-130.06453167963903
21
11.378196207678585
31
0
0
LINE
5
184
100
AcDbEntity
8
0
100
AcDbLine
10
-130.06453167963903
20
11.378196207678585
30
0
11
-130.06453167937843
21
9.5431369942161766
31
0
0
ARC
5
185
100
AcDbEntity
8
0
100
AcDbCircle
10
-136.29527343912753
20
-5.8316888180739641e-12
30
0
40
11.397087635320265
210
1.5620878736332659e-31
220
1.2038546522363548e-31
230
1
100
AcDbArc
50
37.620371882305889
51
56.859364074025542
0
ELLIPSE
5
186
100
AcDbEntity
8
0
100
AcDbEllipse
10
-127.13040618711506
20
6.8014163194427955
30
0
11
0.21094126212762365
21
-0.038757532643989477
31
0.0
40
0.92331301453890335
41
1.767129094027212
42
2.4370845223564843
0
LINE
5
187
100
AcDbEntity
8
0
100
AcDbLine
10
-127.13645746936747
20
7.0000000000328573
30
-7.6606561380419321e-32
11
-102.20924575300546
21
6.9999999999958415
31
0
0
LINE
5
188
100
AcDbEntity
8
0
100
AcDbLine
10
-102.20924575300546
20
6.9999999999958415
30
0
11
-101.99999999997972
21
7.0000000003762155
31
0
0
LINE
5
189
100
AcDbEntity
8
0
100
AcDbLine
10
-101.99999999997972
20
7.0000000003762155
30
0
11
-101.99999999997884
21
-7.0000000001142046
31
0
0
LINE
5
190
100
AcDbEntity
8
0
100
AcDbLine
10
-101.99999999997884
20
-7.0000000001142046
30
0
11
-102.20924575270656
21
-7.0000000000056231
31
0
0
LINE
5
191
100
AcDbEntity
8
0
100
AcDbLine
10
-102.20924575270656
20
-7.0000000000056231
30
0
11
-127.13645810698351
21
-7.0000000001327765
31
0
0
ELLIPSE
5
192
100
AcDbEntity
8
0
100
AcDbEllipse
10
-127.12995063991011
20
-6.8001336619259316
30
0
11
0.21104381094264962
21
0.042808412457441054
31
0.0
40
0.92505936702632741
41
3.8289104444690278
42
4.4965950898101656
0
ARC
5
193
100
AcDbEntity
8
0
100
AcDbCircle
10
-136.29527343912753
20
-5.8316888180739641e-12
30
0
40
11.39708763531992
210
8.2567230457277189e-32
220
5.3908383636248212e-32
230
1
100
AcDbArc
50
303.14063589440678
51
322.3796281478551
0
LINE
5
194
100
AcDbEntity
8
0
100
AcDbLine
10
-130.06453168463651
20
-9.5431369976604543
30
2.0644598691592602e-46
11
-130.06453167862063
21
-11.749999999513658
31
0
0
ARC
5
195
100
AcDbEntity
8
0
100
AcDbCircle
10
-130.47515776627671
20
-66.748467125572148
30
0
40
55.000000000000007
210
0
220
-0
230
1
100
AcDbArc
50
49.127810553840426
51
89.572229811751626
0
ARC
5
196
100
AcDbEntity
8
0
100
AcDbCircle
10
-91.212726399401291
20
-21.378196207697648
30
0
40
4.9999999999994209
210
1.3245268950671921e-46
220
-1.1462163495844676e-46
230
1
100
AcDbArc
50
229.12781055384747
51
270
0
LINE
5
197
100
AcDbEntity
8
0
100
AcDbLine
10
-91.212726399401291
20
-26.378196207697641
30
-3.7282117694167579e-31
11
-73.28379421126597
21
-26.37819620769767
31
0
0
LINE
5
198
100
AcDbEntity
8
0
100
AcDbLine
10
-73.28379421126597
20
-26.37819620769767
30
0
11
-59.486085127504026
21
-50.276529368826708
31
0
0
LINE
5
199
100
AcDbEntity
8
0
100
AcDbLine
10
-59.486085127504026
20
-50.276529368826708
30
0
11
-68.450551221568773
21
-65.803440106481105
31
0
0
ARC
5
200
100
AcDbEntity
8
0
100
AcDbCircle
10
-64.12042420264622
20
-68.303440106480394
30
0
40
4.9999999999999583
210
-4.9303806576299455e-32
220
-8.539669799673101e-32
230
1
100
AcDbArc
50
150.00000000000912
51
190.87218944616876
0
ARC
5
201
100
AcDbEntity
8
0
100
AcDbCircle
10
-123.04344707754417
20
-79.620567625610263
30
0
40
55.000000000000007
210
9.7329733570146538e-32
220
1.7152483333265889e-31
230
1
100
AcDbArc
50
-29.57222981174267
51
10.872189446168605
0
LINE
5
202
100
AcDbEntity
8
0
100
AcDbLine
10
-75.208064333341909
20
-106.76418856526526
30
1.9925317140122536e-45
11
-74.886072804912303
21
-106.95009046205459
31
0
0
LINE
5
203
100
AcDbEntity
8
0
100
AcDbLine
10
-74.886072804912303
20
-106.95009046205459
30
0
11
-73.296864908474873
21
-107.86762006856011
31
0
0
ARC
5
204
100
AcDbEntity
8
0
100
AcDbCircle
10
-68.147636719558179
20
-118.03516921403425
30
0
40
11.397087635320084
210
0
220
0
230
1
100
AcDbArc
50
97.620371882305591
51
116.85936407402545
0
ELLIPSE
5
205
100
AcDbEntity
8
0
100
AcDbEllipse
10
-69.455402407908423
20
-106.69745319175522
30
0
11
0.13903563892151147
21
0.16330172538687981
31
0.0
40
0.92331301453890302
41
1.7671290940270978
42
2.4370845223564865
0
LINE
5
206
100
AcDbEntity
8
0
100
AcDbLine
10
-69.630406561202648
20
-106.60340191561625
30
6.1883090167480808e-33
11
-57.166800702989569
21
-85.015803323752152
31
0
0
LINE
5
207
100
AcDbEntity
8
0
100
AcDbLine
10
-57.166800702989569
20
-85.015803323752152
30
0
11
-57.06217782681442
21
-84.834591185822035
31
0
0
LINE
5
208
100
AcDbEntity
8
0
100
AcDbLine
10
-57.06217782681442
20
-84.834591185822035
30
0
11
-44.937822173408179
21
-91.834591186068337
31
0
0
LINE
5
209
100
AcDbEntity
8
0
100
AcDbLine
10
-44.937822173408179
20
-91.834591186068337
30
0
11
-45.04244504985671
21
-92.015803323494026
31
0
0
LINE
5
210
100
AcDbEntity
8
0
100
AcDbLine
10
-45.04244504985671
20
-92.015803323494026
30
0
11
-57.506051226885063
21
-113.60340246789073
31
0
0
ELLIPSE
5
211
100
AcDbEntity
8
0
100
AcDbEllipse
10
-57.675886819596876
20
-113.49783366698747
30
0
11
0.068448732787498676
21
0.20417350781653545
31
0.0
40
0.92505936702632674
41
3.8289104444690829
42
4.4965950898102793
0
ARC
5
212
100
AcDbEntity
8
0
100
AcDbCircle
10
-68.147636719558179
20
-118.03516921403425
30
0
40
11.397087635319991
210
-3.9383804365700173e-31
220
-2.1609657909233346e-32
230
1
100
AcDbArc
50
3.1406358944058881
51
22.379628147854245
0
LINE
5
213
100
AcDbEntity
8
0
100
AcDbLine
10
-56.76766677054853
20
-117.41075706905207
30
4.4953584344408646e-30
11
-54.856467345263752
21
-118.5141885647688
31
0
0
ARC
5
214
100
AcDbEntity
8
0
100
AcDbCircle
10
-7.4317106887217799
20
-146.36903475116483
30
0
40
55.000000000000036
210
-1.2924560011833304e-31
220
3.726539370469343e-31
230
1
100
AcDbArc
50
109.12781055384042
51
149.57222981175164
0
ARC
5
215
100
AcDbEntity
8
0
100
AcDbCircle
10
-27.092302196745251
20
-89.681636314169765
30
0
40
4.9999999999999263
210
1.4217016013016672e-30
220
-4.099193307516348e-30
230
1
100
AcDbArc
50
289.12781055384016
51
329.99999999999994
0
LINE
5
216
100
AcDbEntity
8
0
100
AcDbLine
10
-22.762175177823121
20
-92.181636314169737
30
-1.4912847077665205e-30
11
-13.797709083755873
21
-76.654725576516825
31
0
0
LINE
5
217
100
AcDbEntity
8
0
100
AcDbLine
10
-13.797709083755873
20
-76.654725576516825
30
0
11
13.79770908376698
21
-76.654725576516199
31
0
0
LINE
5
218
100
AcDbEntity
8
0
100
AcDbLine
10
13.79770908376698
20
-76.654725576516199
30
0
11
22.762175177836678
21
-92.181636314167733
31
0
0
ARC
5
219
100
AcDbEntity
8
0
100
AcDbCircle
10
27.092302196758435
20
-89.681636314167093
30
0
40
4.9999999999999414
210
1.9721522630530572e-31
220
-3.4158679198686186e-31
230
1
100
AcDbArc
50
210.00000000000881
51
250.87218944616873
0
ARC
5
220
100
AcDbEntity
8
0
100
AcDbCircle
10
7.43171068874386
20
-146.36903475116523
30
0
40
55
210
-1.7005243848164749e-31
220
-9.9879996260901169e-32
230
1
100
AcDbArc
50
30.427770188257309
51
70.872189446168591
0
LINE
5
221
100
AcDbEntity
8
0
100
AcDbLine
10
54.856467345281452
20
-118.5141885647618
30
1.0846837446788912e-29
11
55.178458874727525
21
-118.32828666973305
31
0
0
LINE
5
222
100
AcDbEntity
8
0
100
AcDbLine
10
55.178458874727525
20
-118.32828666973305
30
0
11
56.767666770904356
21
-117.41075706277614
31
0
0
ARC
5
223
100
AcDbEntity
8
0
100
AcDbCircle
10
68.147636719570087
20
-118.03516921402843
30
0
40
11.397087635320107
210
0
220
0
230
1
100
AcDbArc
50
157.62037188230573
51
176.85936407402556
0
ELLIPSE
5
224
100
AcDbEntity
8
0
100
AcDbEllipse
10
57.675003779207458
20
-113.49886951119787
30
0
11
-0.071905623206112143
21
0.20205925803086927
31
0.0
40
0.92331301453890313
41
1.7671290940271061
42
2.4370845223564408
0
LINE
5
225
100
AcDbEntity
8
0
100
AcDbLine
10
57.506050908165648
20
-113.60340191564894
30
-2.1801123312219749e-32
11
45.042445050016724
21
-92.015803323747861
31
0
0
LINE
5
226
100
AcDbEntity
8
0
100
AcDbLine
10
45.042445050016724
20
-92.015803323747861
30
0
11
44.937822173182731
21
-91.834591186198111
31
0
0
LINE
5
227
100
AcDbEntity
8
0
100
AcDbLine
10
44.937822173182731
20
-91.834591186198111
30
0
11
57.062177826590215
21
-84.834591185953968
31
0
0
LINE
5
228
100
AcDbEntity
8
0
100
AcDbLine
10
57.062177826590215
20
-84.834591185953968
30
0
11
57.166800702850686
21
-85.015803323488257
31
0
0
LINE
5
229
100
AcDbEntity
8
0
100
AcDbLine
10
57.166800702850686
20
-85.015803323488257
30
0
11
69.630406880099258
21
-106.60340246775782
31
0
0
ELLIPSE
5
230
100
AcDbEntity
8
0
100
AcDbEllipse
10
69.454063820314062
20
-106.69770000506139
30
0
11
-0.14259507815515088
21
0.16136509535909446
31
0.0
40
0.92505936702632763
41
3.8289104444691549
42
4.4965950898102678
0
ARC
5
231
100
AcDbEntity
8
0
100
AcDbCircle
10
68.147636719570087
20
-118.03516921402843
30
0
40
11.397087635319981
210
-2.6277632518233792e-31
220
3.5414379898118632e-31
230
1
100
AcDbArc
50
63.140635894405911
51
82.379628147854262
0
LINE
5
232
100
AcDbEntity
8
0
100
AcDbLine
10
73.296864914088815
20
-107.86762007139149
30
-2.2476792172204295e-30
11
75.208064333357754
21
-106.76418856525498
31
0
0
ARC
5
233
100
AcDbEntity
8
0
100
AcDbCircle
10
123.04344707755577
20
-79.620567625592514
30
0
40
54.999999999999993
210
3.7198497746812886e-32
220
1.9367528818104925e-31
230
1
100
AcDbArc
50
169.12781055384042
51
209.57222981175164
0
ARC
5
234
100
AcDbEntity
8
0
100
AcDbCircle
10
64.120424202655968
20
-68.303440106471925
30
0
40
5.0000000000000231
210
2.6126262553709314e-46
220
-7.5248749233236077e-46
230
1
100
AcDbArc
50
-10.87218944615932
51
29.999999999999662
0
LINE
5
235
100
AcDbEntity
8
0
100
AcDbLine
10
68.450551221578195
20
-65.803440106471939
30
-1.4912847077665608e-30
11
59.486085127511032
21
-50.276529368818998
31
0
0
LINE
5
236
100
AcDbEntity
8
0
100
AcDbLine
10
59.486085127511032
20
-50.276529368818998
30
0
11
73.283794211271939
21
-26.378196207689225
31
0
0
LINE
5
237
100
AcDbEntity
8
0
100
AcDbLine
10
73.283794211271939
20
-26.378196207689225
30
0
11
91.212726399406421
21
-26.378196207686365
31
0
0
ARC
5
238
100
AcDbEntity
8
0
100
AcDbCircle
10
91.212726399405597
20
-21.378196207686379
30
0
40
4.9999999999999867
210
-0
220
0
230
1
100
AcDbArc
50
270.00000000000949
51
310.87218944616882
0
ARC
5
239
100
AcDbEntity
8
0
100
AcDbCircle
10
130.47515776628902
20
-66.748467125554654
30
0
40
54.999999999999993
210
-3.9736424936411872e-31
220
3.9147466996007233e-31
230
1
100
AcDbArc
50
90.427770188257355
51
130.87218944616865
0
LINE
5
240
100
AcDbEntity
8
0
100
AcDbLine
10
130.06453167862432
20
-11.749999999496241
30
-2.1693674893577819e-29
11
130.06453167964079
21
-11.378196207678158
31
0
0
LINE
5
241
100
AcDbEntity
8
0
100
AcDbLine
10
130.06453167964079
20
-11.378196207678158
30
0
11
130.06453167938017
21
-9.543136994215752
31
0
0
ARC
5
242
100
AcDbEntity
8
0
100
AcDbCircle
10
136.29527343912918
20
6.0865553512770922e-12
30
0
40
11.397087635320061
210
1.5620878736332729e-31
220
1.203854652236346e-31
230
1
100
AcDbArc
50
217.62037188230565
51
236.85936407402548
0
ELLIPSE
5
243
100
AcDbEntity
8
0
100
AcDbEllipse
10
127.13040618711685
20
-6.8014163194423647
30
0
11
-0.2109412621276236
21
0.038757532643989442
31
0.0
40
0.92331301453890358
41
1.7671290940272149
42
2.4370845223565061
0
LINE
5
244
100
AcDbEntity
8
0
100
AcDbLine
10
127.13645746936925
20
-7.0000000000324274
30
3.8303280690209671e-32
11
102.20924575300725
21
-6.9999999999954152
31
0
0
LINE
5
245
100
AcDbEntity
8
0
100
AcDbLine
10
102.20924575300725
20
-6.9999999999954152
30
0
11
101.9999999999981
21
-7.0000000003757892
31
0
0
LINE
5
246
100
AcDbEntity
8
0
100
AcDbLine
10
101.9999999999981
20
-7.0000000003757892
30
0
11
101.99999999999933
21
7.0000000001146336
31
0
0
LINE
5
247
100
AcDbEntity
8
0
100
AcDbLine
10
101.99999999999933
20
7.0000000001146336
30
0
11
102.20924575270834
21
7.0000000000060494
31
0
0
LINE
5
248
100
AcDbEntity
8
0
100
AcDbLine
10
102.20924575270834
20
7.0000000000060494
30
0
11
127.13645810698526
21
7.0000000001332063
31
0
0
ELLIPSE
5
249
100
AcDbEntity
8
0
100
AcDbEllipse
10
127.12995063991187
20
6.8001336619263606
30
0
11
-0.21104381094264965
21
-0.042808412457441117
31
0.0
40
0.92505936702632685
41
3.828910444468995
42
4.4965950898102705
0
ARC
5
250
100
AcDbEntity
8
0
100
AcDbCircle
10
136.29527343912918
20
6.0865553512770922e-12
30
0
40
11.397087635320013
210
-2.982007650022654e-31
220
2.7636053819286544e-31
230
1
100
AcDbArc
50
123.14063589440578
51
142.37962814785411
0
LINE
5
251
100
AcDbEntity
8
0
100
AcDbLine
10
130.06453168463827
20
9.5431369976608895
30
-4.495358434440873e-30
11
130.06453167862242
21
11.749999999514106
31
0
0
ARC
5
252
100
AcDbEntity
8
0
100
AcDbCircle
10
130.47515776627847
20
66.748467125572603
30
0
40
55
210
2.9825694155330884e-31
220
-2.5810497624376535e-31
230
1
100
AcDbArc
50
229.12781055384042
51
269.57222981175164
0
ARC
5
253
100
AcDbEntity
8
0
100
AcDbCircle
10
91.212726399402229
20
21.378196207698082
30
0
40
4.9999999999999876
210
-3.5183925602107178e-46
220
-7.4953699430515114e-46
230
1
100
AcDbArc
50
49.127810553840433
51
90
0
LWPOLYLINE
5
254
100
AcDbEntity
8
0
100
AcDbPolyline
90
48
70
1
43
0.0
10
90.000000000002245
20
-15.519854795221892
10
89.141658587536909
20
-16.378196207686702
10
70.397042865322163
20
-16.378196207689694
42
0.26794919243109044
10
66.066915846400676
20
-18.878196207689847
10
49.382455416692537
20
-47.776529368819155
42
0.26794919243111315
10
49.382455416692615
20
-52.77652936881897
10
58.754763277799888
20
-69.009842768434112
10
58.440588515718076
20
-70.182358942981352
10
31.559411484293435
20
-85.702213738211469
10
30.386895309746031
20
-85.388038976128684
10
21.014587448636103
20
-69.154725576515048
42
0.26794919243108956
10
16.684460429714115
20
-66.654725576515702
10
-16.684460429704146
20
-66.654725576516839
42
0.26794919243111009
10
-21.014587448626159
20
-69.154725576516825
10
-30.386895309733557
20
-85.388038976131909
10
-31.559411484280528
20
-85.702213738214766
10
-58.440588515707859
20
-70.182358942989282
10
-58.754763277789941
20
-69.009842768441715
10
-49.382455416685104
20
-52.776529368825081
42
0.26794919243109527
10
-49.382455416685545
20
-47.776529368825592
10
-66.066915846395702
20
-18.878196207697524
42
0.26794919243111476
10
-70.397042865317772
20
-16.378196207697691
10
-89.14165858753249
20
-16.378196207697641
10
-89.999999999997669
20
-15.519854795233234
10
-90.000000000000355
20
15.519854795222315
10
-89.141658587535048
20
16.378196207687125
10
-70.397042865320245
20
16.37819620769012
42
0.26794919243109078
10
-66.066915846398686
20
18.878196207690277
10
-49.382455416690746
20
47.77652936881951
42
0.2679491924311152
10
-49.382455416690817
20
52.776529368819276
10
-58.754763277798034
20
69.009842768434538
10
-58.440588515716236
20
70.182358942981807
10
-31.559411484291594
20
85.70221373821191
10
-30.38689530974419
20
85.388038976129138
10
-21.014587448634231
20
69.154725576515418
42
0.2679491924310895
10
-16.684460429712253
20
66.654725576516086
10
16.684460429705958
20
66.654725576517279
42
0.26794919243111082
10
21.014587448627964
20
69.154725576517251
10
30.386895309735351
20
85.388038976132407
10
31.559411484282332
20
85.702213738215264
10
58.440588515709649
20
70.182358942989836
10
58.754763277791724
20
69.00984276844224
10
49.382455416686987
20
52.776529368825521
42
0.26794919243108933
10
49.382455416687456
20
47.776529368826033
10
66.066915846397606
20
18.878196207697961
42
0.26794919243111281
10
70.397042865319676
20
16.378196207698124
10
89.141658587534351
20
16.378196207698061
10
89.999999999999517
20
15.519854795233655
0
CIRCLE
5
255
100
AcDbEntity
8
0
100
AcDbCircle
10
-107.29527343912724
20
-10.250000000005265
30
0
40
0.99999999999999645
210
-0
220
0
230
1
0
CIRCLE
5
256
100
AcDbEntity
8
0
100
AcDbCircle
10
-72.874397108358536
20
105.72215836261792
30
0
40
1.0000000000000053
210
-0
220
0
230
1
0
CIRCLE
5
257
100
AcDbEntity
8
0
100
AcDbCircle
10
72.874397108360355
20
-105.72215836261748
30
0
40
1.0000000000000053
210
-0
220
0
230
1
0
CIRCLE
5
258
100
AcDbEntity
8
0
100
AcDbCircle
10
-127.9952734391275
20
10.249999999994518
30
0
40
0.99999999999999645
210
-0
220
0
230
1
0
CIRCLE
5
259
100
AcDbEntity
8
0
100
AcDbCircle
10
55.120876330779453
20
-115.97215836261775
30
0
40
1.0000000000000053
210
-0
220
0
230
1
0
CIRCLE
5
260
100
AcDbEntity
8
0
100
AcDbCircle
10
-62.524397108349106
20
-87.795432504285344
30
0
40
1.0000000000000053
210
-0
220
0
230
1
0
CIRCLE
5
261
100
AcDbEntity
8
0
100
AcDbCircle
10
-44.770876330767933
20
-98.045432504285159
30
0
40
1.0000000000000053
210
-0
220
0
230
1
0
CIRCLE
5
262
100
AcDbEntity
8
0
100
AcDbCircle
10
-107.2952734391275
20
10.24999999999479
30
0
40
0.99999999999999645
210
-0
220
0
230
1
0
CIRCLE
5
263
100
AcDbEntity
8
0
100
AcDbCircle
10
-72.874397108348873
20
-105.72215836262338
30
0
40
1.0000000000000053
210
-0
220
0
230
1
0
CIRCLE
5
264
100
AcDbEntity
8
0
100
AcDbCircle
10
-55.120876330767707
20
-115.97215836262319
30
0
40
1.0000000000000053
210
-0
220
0
230
1
0
CIRCLE
5
265
100
AcDbEntity
8
0
100
AcDbCircle
10
-55.120876330777634
20
115.97215836261817
30
0
40
1.0000000000000053
210
-0
220
0
230
1
0
CIRCLE
5
266
100
AcDbEntity
8
0
100
AcDbCircle
10
55.120876330769477
20
115.97215836262367
30
0
40
1.0000000000000053
210
-0
220
0
230
1
0
CIRCLE
5
267
100
AcDbEntity
8
0
100
AcDbCircle
10
-127.99527343912723
20
-10.250000000005537
30
0
40
0.99999999999999645
210
-0
220
0
230
1
0
CIRCLE
5
268
100
AcDbEntity
8
0
100
AcDbCircle
10
107.29527343912903
20
10.250000000005697
30
0
40
0.99999999999999645
210
-0
220
0
230
1
0
CIRCLE
5
269
100
AcDbEntity
8
0
100
AcDbCircle
10
44.770876330769724
20
98.045432504285671
30
0
40
1.0000000000000053
210
-0
220
0
230
1
0
CIRCLE
5
270
100
AcDbEntity
8
0
100
AcDbCircle
10
127.99527343912928
20
-10.249999999994088
30
0
40
0.99999999999999645
210
-0
220
0
230
1
0
CIRCLE
5
271
100
AcDbEntity
8
0
100
AcDbCircle
10
107.29527343912928
20
-10.249999999994364
30
0
40
0.99999999999999645
210
-0
220
0
230
1
0
CIRCLE
5
272
100
AcDbEntity
8
0
100
AcDbCircle
10
127.99527343912899
20
10.250000000005969
30
0
40
0.99999999999999645
210
-0
220
0
230
1
0
CIRCLE
5
273
100
AcDbEntity
8
0
100
AcDbCircle
10
72.874397108350649
20
105.72215836262389
30
0
40
1.0000000000000053
210
-0
220
0
230
1
0
CIRCLE
5
274
100
AcDbEntity
8
0
100
AcDbCircle
10
-44.770876330777405
20
98.045432504280427
30
0
40
1.0000000000000053
210
-0
220
0
230
1
0
CIRCLE
5
275
100
AcDbEntity
8
0
100
AcDbCircle
10
44.770876330779217
20
-98.045432504279987
30
0
40
1.0000000000000053
210
-0
220
0
230
1
0
CIRCLE
5
276
100
AcDbEntity
8
0
100
AcDbCircle
10
62.524397108350897
20
87.79543250428587
30
0
40
1.0000000000000053
210
-0
220
0
230
1
0
CIRCLE
5
277
100
AcDbEntity
8
0
100
AcDbCircle
10
62.524397108360141
20
-87.795432504279745
30
0
40
1.0000000000000053
210
-0
220
0
230
1
0
CIRCLE
5
278
100
AcDbEntity
8
0
100
AcDbCircle
10
-62.524397108358308
20
87.795432504280171
30
0
40
1.0000000000000053
210
-0
220
0
230
1
0
CIRCLE
5
279
100
AcDbEntity
8
0
100
AcDbCircle
10
-96.039757975473904
20
-5.4662194067017278e-12
30
0
40
1.5500000000000114
210
-3.944304526105059e-31
220
-4.8303799127569366e-47
230
1
0
CIRCLE
5
280
100
AcDbEntity
8
0
100
AcDbCircle
10
96.039757975473918
20
5.4530351268774378e-12
30
0
40
1.5500000000000114
210
0
220
0
230
1
0
CIRCLE
5
281
100
AcDbEntity
8
0
100
AcDbCircle
10
-62.703307656235452
20
-73.592191057928829
30
0
40
1.5499999999999938
210
-4.9303806576313227e-32
220
-8.5396697996723106e-32
230
1
0
CIRCLE
5
282
100
AcDbEntity
8
0
100
AcDbCircle
10
-95.084360804442809
20
-17.50656180265775
30
0
40
1.5499999999999934
210
4.8303799127570231e-47
220
-3.9443045261050599e-31
230
1
0
CIRCLE
5
283
100
AcDbEntity
8
0
100
AcDbCircle
10
62.703307656235417
20
73.592191057928858
30
0
40
1.5499999999999936
210
-3.4158679198689242e-31
220
1.9721522630525267e-31
230
1
0
CIRCLE
5
284
100
AcDbEntity
8
0
100
AcDbCircle
10
48.019878987732163
20
83.172870180072337
30
0
40
1.5500000000000116
210
4.9303806576313167e-32
220
8.5396697996723106e-32
230
1
0
CIRCLE
5
285
100
AcDbEntity
8
0
100
AcDbCircle
10
32.381053148197445
20
91.098752860581726
30
0
40
1.5499999999999936
210
-3.4158679198689242e-31
220
1.9721522630525267e-31
230
1
0
CIRCLE
5
286
100
AcDbEntity
8
0
100
AcDbCircle
10
62.703307656245322
20
-73.592191057923955
30
0
40
1.5499999999999932
210
0
220
-0
230
1
0
ENDSEC
0
SECTION
2
OBJECTS
0
DICTIONARY
5
C
100
AcDbDictionary
3
ACAD_GROUP
350
D
3
ACAD_MLINESTYLE
350
17
0
DICTIONARY
5
D
100
AcDbDictionary
0
DICTIONARY
5
1A
330
C
100
AcDbDictionary
0
DICTIONARY
5
17
100
AcDbDictionary
0
ENDSEC
0
EOF
